<?xml version="1.0" encoding="iso-8859-1"?>
<!-- Generator: Adobe Illustrator 19.0.0, SVG Export Plug-In . SVG Version: 6.00 Build 0)  -->
<svg version="1.1" id="Capa_1" xmlns="http://www.w3.org/2000/svg" xmlns:xlink="http://www.w3.org/1999/xlink" x="0px" y="0px"
	 viewBox="0 0 512.001 512.001" style="enable-background:new 0 0 512.001 512.001;" xml:space="preserve">
<polygon style="fill:#F7C4A2;" points="298.666,315.737 298.666,372.27 256,384.003 213.334,372.27 213.334,315.737 "/>
<path style="fill:#EBEBEB;" d="M460.797,503.468H51.204v-59.732c0-42.418,34.38-76.799,76.799-76.799h85.332L256,375.47
	l42.666-8.533h85.332c42.418,0,76.799,34.38,76.799,76.799V503.468z"/>
<g>
	<path style="fill:#F7C4A2;" d="M145.069,256.005h25.6v-42.666h-25.6c-9.429,0-17.066,7.637-17.066,17.066v8.533
		C128.003,248.368,135.648,256.005,145.069,256.005z"/>
	<path style="fill:#F7C4A2;" d="M366.932,256.005h-25.6v-42.666h25.6c9.429,0,17.066,7.637,17.066,17.066v8.533
		C383.998,248.368,376.361,256.005,366.932,256.005z"/>
</g>
<path style="fill:#FDC9A6;" d="M162.135,153.607v85.332c0,51.839,42.026,93.865,93.865,93.865l0,0
	c51.839,0,93.865-42.026,93.865-93.865v-85.332H162.135z"/>
<g>
	<path style="fill:#A66444;" d="M213.334,239.707c-4.71,0-8.533-3.823-8.533-8.533v-9.301c0-4.71,3.823-8.533,8.533-8.533
		c4.71,0,8.533,3.823,8.533,8.533v9.301C221.868,235.884,218.053,239.707,213.334,239.707z"/>
	<path style="fill:#A66444;" d="M298.666,239.707c-4.71,0-8.533-3.823-8.533-8.533v-9.301c0-4.71,3.823-8.533,8.533-8.533
		s8.533,3.823,8.533,8.533v9.301C307.2,235.884,303.385,239.707,298.666,239.707z"/>
</g>
<g>
	<rect x="51.204" y="469.326" style="fill:#FDC9A6;" width="76.799" height="34.133"/>
	<rect x="392.531" y="469.326" style="fill:#FDC9A6;" width="68.266" height="34.133"/>
</g>
<path style="fill:#A66444;" d="M256,264.538c-2.125,0-4.173-0.794-5.743-2.227l-8.533-7.765c-2.782-2.534-3.575-6.596-1.954-9.992
	l8.533-17.834c2.287-4.122,7.475-5.615,11.597-3.328c3.789,2.099,5.402,6.699,3.763,10.701l-5.794,12.109l3.84,3.499
	c3.482,3.174,3.729,8.576,0.555,12.057C260.659,263.514,258.39,264.53,256,264.538z"/>
<path style="fill:#F7BA61;" d="M349.865,179.206l-16.077,8.533c-26.589,17.066-59.195,13.474-86.134,0l-42.854-25.6l-42.666,42.666
	v-51.199c0-47.129,38.203-85.332,85.332-85.332H256c51.839,0,93.865,42.026,93.865,93.865V179.206z"/>
<path style="fill:#EBEBEB;" d="M319.999,25.609c-11.998,0.026-23.279,5.683-30.481,15.274
	c-3.268-20.872-22.835-35.131-43.707-31.863c-16.418,2.568-29.294,15.454-31.863,31.863c-12.783-16.879-36.821-20.198-53.699-7.415
	s-20.198,36.821-7.415,53.699c2.586,3.422,5.734,6.374,9.301,8.755v57.684h187.73V87.901c13.303-16.375,10.812-40.439-5.564-53.742
	C337.441,28.578,328.848,25.558,319.999,25.609z"/>
<g>
	<path style="fill:#DBDBDB;" d="M177.606,371.894c0.998-1.459,1.502-3.191,1.442-4.958h-18.867l-39.116,54.775
		c-1.033,1.442-1.596,3.183-1.596,4.958v76.799h17.066v-74.068L177.606,371.894z"/>
	<circle style="fill:#DBDBDB;" cx="162.135" cy="435.193" r="8.533"/>
	<circle style="fill:#DBDBDB;" cx="162.135" cy="469.326" r="8.533"/>
</g>
<polygon style="fill:#A83B32;" points="290.133,469.335 221.868,435.202 170.668,366.936 213.334,366.936 "/>
<polygon style="fill:#B94137;" points="221.868,469.335 290.133,435.202 341.332,366.936 298.666,366.936 "/>
<path style="fill:#A66444;" d="M256,298.62c-10.112,0-19.993-3.004-28.398-8.627l-1.946-1.297
	c-3.959-2.551-5.103-7.833-2.551-11.793s7.833-5.103,11.793-2.551c0.085,0.051,0.162,0.111,0.247,0.162l1.928,1.289
	c11.46,7.663,26.402,7.663,37.862,0l1.92-1.28c3.959-2.551,9.241-1.408,11.793,2.551c2.492,3.866,1.468,9.003-2.304,11.631
	l-1.937,1.289C276.002,295.616,266.121,298.62,256,298.62z"/>
<path d="M256,384.003c-0.768,0-1.527-0.102-2.27-0.307l-42.666-11.733c-3.695-1.024-6.263-4.386-6.263-8.226v-39.466
	c0-4.71,3.823-8.533,8.533-8.533c4.71,0,8.533,3.823,8.533,8.533v32.964L256,366.621l34.133-9.387v-32.964
	c0-4.71,3.823-8.533,8.533-8.533s8.533,3.823,8.533,8.533v39.466c0,3.84-2.56,7.202-6.263,8.226l-42.666,11.733
	C257.536,383.9,256.768,384.003,256,384.003z"/>
<path d="M213.334,239.707c-4.71,0-8.533-3.823-8.533-8.533v-9.301c0-4.71,3.823-8.533,8.533-8.533c4.71,0,8.533,3.823,8.533,8.533
	v9.301C221.868,235.884,218.053,239.707,213.334,239.707z"/>
<path d="M298.666,239.707c-4.71,0-8.533-3.823-8.533-8.533v-9.301c0-4.71,3.823-8.533,8.533-8.533s8.533,3.823,8.533,8.533v9.301
	C307.2,235.884,303.385,239.707,298.666,239.707z"/>
<path d="M128.003,512.001H51.204c-4.71,0-8.533-3.823-8.533-8.533v-34.133c0-4.71,3.823-8.533,8.533-8.533h76.799
	c4.71,0,8.533,3.823,8.533,8.533v34.133C136.536,508.178,132.721,512.001,128.003,512.001z M59.737,494.934h59.732v-17.066H59.737
	V494.934z"/>
<path d="M460.797,512.001h-68.266c-4.71,0-8.533-3.823-8.533-8.533v-34.133c0-4.71,3.823-8.533,8.533-8.533h68.266
	c4.71,0,8.533,3.823,8.533,8.533v34.133C469.33,508.178,465.516,512.001,460.797,512.001z M401.065,494.934h51.199v-17.066h-51.199
	V494.934z"/>
<path d="M256,264.538c-2.125,0-4.173-0.794-5.743-2.227l-8.533-7.765c-2.782-2.534-3.575-6.596-1.954-9.992l8.533-17.834
	c2.287-4.122,7.475-5.615,11.597-3.328c3.789,2.099,5.402,6.699,3.763,10.701l-5.794,12.109l3.84,3.499
	c3.482,3.174,3.729,8.576,0.555,12.057C260.659,263.514,258.39,264.53,256,264.538z"/>
<path d="M366.932,264.538h-17.066c-4.71,0-8.533-3.823-8.533-8.533v-42.666c0-4.71,3.823-8.533,8.533-8.533h17.066
	c14.139,0,25.6,11.46,25.6,25.6v8.533C392.531,253.078,381.071,264.538,366.932,264.538z M358.399,247.472h8.533
	c4.71,0,8.533-3.823,8.533-8.533v-8.533c0-4.71-3.823-8.533-8.533-8.533h-8.533V247.472z"/>
<path d="M162.135,264.538h-17.066c-14.139,0-25.6-11.46-25.6-25.6v-8.533c0-14.139,11.46-25.6,25.6-25.6h17.066
	c4.71,0,8.533,3.823,8.533,8.533v42.666C170.668,260.715,166.854,264.538,162.135,264.538z M145.069,221.872
	c-4.71,0-8.533,3.823-8.533,8.533v8.533c0,4.71,3.823,8.533,8.533,8.533h8.533v-25.6H145.069z"/>
<path d="M162.135,213.339c-1.118,0-2.236-0.213-3.268-0.649c-3.183-1.323-5.265-4.437-5.265-7.885v-46.403
	c0-4.71,3.823-8.533,8.533-8.533s8.533,3.823,8.533,8.533v25.804l28.1-28.1c2.765-2.765,7.057-3.294,10.41-1.289l42.854,25.6
	c27.443,13.653,55.773,13.866,77.14,0.137l12.16-6.468V162.14c0-2.918-0.145-5.837-0.444-8.747
	c-0.469-4.693,2.944-8.875,7.637-9.344c4.693-0.469,8.875,2.944,9.344,7.637l0,0c0.35,3.473,0.529,6.963,0.529,10.453v17.066
	c0,3.157-1.741,6.059-4.531,7.543l-16.085,8.533c-25.949,16.691-60.406,16.862-93.942,0.094l-37.708-22.502l-37.964,37.964
	C166.573,212.443,164.405,213.339,162.135,213.339z"/>
<path d="M256,341.337c-56.524-0.06-102.339-45.874-102.398-102.398v-85.332c0-4.71,3.823-8.533,8.533-8.533h187.73
	c4.71,0,8.533,3.823,8.533,8.533v85.332C358.339,295.462,312.533,341.277,256,341.337z M170.668,162.14v76.799
	c0,47.129,38.203,85.332,85.332,85.332s85.332-38.203,85.332-85.332V162.14H170.668z"/>
<path d="M460.797,512.001H51.204c-4.71,0-8.533-3.823-8.533-8.533v-59.732c0.051-47.103,38.229-85.281,85.332-85.332h85.332
	c0.572,0,1.143,0.06,1.707,0.171L256,366.766l40.959-8.192c0.563-0.111,1.135-0.171,1.707-0.171h85.332
	c47.103,0.051,85.281,38.229,85.332,85.332v59.732C469.33,508.178,465.516,512.001,460.797,512.001z M59.737,494.934h392.527
	v-51.199c-0.043-37.683-30.583-68.223-68.266-68.266H299.52l-41.813,8.363c-1.101,0.222-2.244,0.222-3.345,0l-41.881-8.363h-84.479
	c-37.683,0.043-68.223,30.583-68.266,68.266V494.934z"/>
<path d="M349.865,162.14h-187.73c-4.71,0-8.533-3.823-8.533-8.533v-53.409c-19.985-16.503-22.809-46.088-6.306-66.072
	c8.909-10.794,22.178-17.041,36.172-17.049c9.523-0.017,18.824,2.91,26.624,8.371C221.893,2.45,250.104-6.63,273.101,5.172
	c8.712,4.471,15.803,11.562,20.275,20.275c7.799-5.461,17.101-8.388,26.624-8.371c25.907,0.034,46.898,21.026,46.933,46.933
	c-0.009,9.574-2.987,18.91-8.533,26.709v62.89C358.399,158.317,354.584,162.14,349.865,162.14z M170.668,145.074h170.664V87.901
	c0-1.937,0.657-3.823,1.869-5.333c4.284-5.239,6.639-11.793,6.664-18.56c0-16.495-13.372-29.866-29.866-29.866
	c-9.335,0.026-18.116,4.454-23.68,11.946c-2.85,3.755-8.2,4.488-11.955,1.638c-1.749-1.331-2.918-3.285-3.268-5.453
	c-2.509-16.213-17.689-27.323-33.911-24.815c-12.8,1.98-22.835,12.023-24.815,24.815c-0.742,4.651-5.12,7.825-9.771,7.083
	c-2.167-0.35-4.122-1.519-5.453-3.268c-5.564-7.492-14.344-11.921-23.68-11.946c-16.495,0.017-29.858,13.397-29.841,29.892
	c0.009,9.958,4.983,19.259,13.261,24.797c2.364,1.587,3.78,4.241,3.78,7.091V145.074z"/>
<path d="M128.003,503.468c-4.71,0-8.533-3.823-8.533-8.533v-68.266c0-1.775,0.555-3.516,1.596-4.958l42.666-59.732
	c2.884-3.729,8.243-4.412,11.972-1.519c3.524,2.731,4.352,7.714,1.903,11.434l-41.07,57.505v65.535
	C136.536,499.645,132.721,503.468,128.003,503.468z"/>
<circle cx="162.135" cy="435.193" r="8.533"/>
<circle cx="162.135" cy="469.326" r="8.533"/>
<path d="M238.934,452.268c-1.314,0.017-2.62-0.282-3.806-0.853l-17.066-8.533c-1.195-0.606-2.219-1.485-3.012-2.56l-51.199-68.266
	c-2.824-3.772-2.065-9.122,1.707-11.946c1.476-1.109,3.268-1.707,5.111-1.707h42.666c2.688,0,5.214,1.263,6.827,3.413l42.666,56.891
	c2.824,3.772,2.065,9.122-1.707,11.947c-3.772,2.824-9.122,2.065-11.946-1.707l-40.106-53.478h-21.333l39.748,53l15.266,7.629
	c4.215,2.099,5.931,7.228,3.831,11.443C245.138,450.442,242.177,452.268,238.934,452.268z"/>
<path d="M290.133,477.868c-1.323,0.017-2.628-0.282-3.814-0.853l-33.066-16.537c-4.232-2.074-5.982-7.185-3.908-11.417
	c2.074-4.232,7.185-5.982,11.417-3.908c0.043,0.017,0.077,0.043,0.119,0.06l2.44,1.22c-0.896-4.625,2.125-9.105,6.75-10.001
	c3.208-0.623,6.494,0.64,8.456,3.26l18.432,24.524c2.824,3.772,2.065,9.122-1.707,11.947
	C293.777,477.271,291.985,477.868,290.133,477.868z"/>
<path d="M221.868,477.868c-4.71,0-8.533-3.823-8.533-8.533c0-1.843,0.597-3.644,1.707-5.12l76.799-102.398
	c1.613-2.15,4.139-3.413,6.827-3.413h42.666c4.71,0,8.533,3.823,8.533,8.533c0,1.843-0.597,3.644-1.707,5.12l-51.199,68.266
	c-0.794,1.075-1.818,1.954-3.012,2.56l-68.266,34.133C224.496,477.586,223.19,477.885,221.868,477.868z M302.933,375.47
	l-52.547,70.066l34.133-17.066l39.748-53H302.933z"/>
<path d="M256,298.62c-10.112,0-19.993-3.004-28.398-8.627l-1.946-1.297c-3.959-2.551-5.103-7.833-2.551-11.793
	s7.833-5.103,11.793-2.551c0.085,0.051,0.162,0.111,0.247,0.162l1.928,1.289c11.46,7.663,26.402,7.663,37.862,0l1.92-1.28
	c3.959-2.551,9.241-1.408,11.793,2.551c2.492,3.866,1.468,9.003-2.304,11.631l-1.937,1.289
	C276.002,295.616,266.121,298.62,256,298.62z"/>
<g>
</g>
<g>
</g>
<g>
</g>
<g>
</g>
<g>
</g>
<g>
</g>
<g>
</g>
<g>
</g>
<g>
</g>
<g>
</g>
<g>
</g>
<g>
</g>
<g>
</g>
<g>
</g>
<g>
</g>
</svg>
