<?xml version="1.0" encoding="iso-8859-1"?>
<!-- Generator: Adobe Illustrator 19.0.0, SVG Export Plug-In . SVG Version: 6.00 Build 0)  -->
<svg version="1.1" id="Capa_1" xmlns="http://www.w3.org/2000/svg" xmlns:xlink="http://www.w3.org/1999/xlink" x="0px" y="0px"
	 viewBox="0 0 512 512" style="enable-background:new 0 0 512 512;" xml:space="preserve">
<path style="fill:#FBB540;" d="M499,405.465c-6.913-16.126-18.737-29.663-33.78-38.691l-29.797-17.034l-0.32,0.825
	c6.18-31.252-12.371-62.081-42.87-71.274l-36.958-11.102l0.66-4.591c4.653-20.955-7.532-41.972-28.023-48.348l-12.474-3.89
	c-36.545-11.38-75.721-11.195-112.163,0.537l-9.668,3.095c-20.284,6.531-32.253,27.434-27.63,48.235l0.671,4.612l-44.943,12.154
	c-30.87,8.357-50.298,38.846-44.82,70.356l-0.279-0.722l-29.777,17.798c-15.033,9.007-26.857,22.534-33.769,38.639
	c-7.408,17.282,0.598,37.298,17.88,44.706c4.23,1.816,8.78,2.744,13.382,2.755h112.183c22.792,0,41.27-18.479,41.27-41.27h126.153
	c0.041,22.709,18.438,41.116,41.147,41.188l30.045,0.083l4.127-10.318l-3.766,9.719h72.223c18.809,0,34.048-15.249,34.048-34.048
	C501.755,414.265,500.816,409.705,499,405.465z M192.114,382.126l-0.588-2.662l0.681,1.837L192.114,382.126z"/>
<path style="fill:#EA9D2D;" d="M312.582,288.442c-1.104,0-2.198-0.175-3.25-0.526c-5.406-1.795-8.337-7.635-6.541-13.041
	l1.259-3.797c1.806-5.406-1.114-11.246-6.51-13.052c-1.052-0.351-2.146-0.526-3.26-0.537h-2.332
	c-5.695,0-10.318-4.622-10.318-10.318c0-5.695,4.622-10.318,10.318-10.318h2.332c17.096,0.01,30.942,13.877,30.932,30.973
	c0,3.322-0.536,6.624-1.589,9.771l-1.248,3.776C320.97,285.595,317.029,288.442,312.582,288.442z"/>
<g>
	<path style="fill:#F9E0A0;" d="M104.693,171.998c-5.695,0-10.318-4.612-10.318-10.318c0-2.837,1.166-5.541,3.219-7.491
		c1.888-1.785,3.91-3.467,5.933-5.159c7.057-5.84,10.441-8.935,10.441-15.476c0-6.541-3.384-9.668-10.441-15.476
		c-10.772-6.913-17.468-18.665-17.932-31.458c0.495-12.753,7.191-24.453,17.922-31.355c1.661-1.372,3.343-2.744,4.891-4.21
		c4.137-3.921,10.668-3.735,14.589,0.402s3.735,10.668-0.402,14.589l0,0c-1.888,1.785-3.9,3.456-5.922,5.159
		c-7.057,5.726-10.441,8.822-10.441,15.414s3.384,9.678,10.441,15.476c10.751,6.913,17.447,18.634,17.932,31.407
		c-0.485,12.773-7.171,24.504-17.922,31.417c-1.671,1.383-3.343,2.744-4.901,4.22C109.882,170.977,107.334,171.998,104.693,171.998z
		"/>
	<path style="fill:#F9E0A0;" d="M158.85,171.998c-5.695,0-10.318-4.612-10.318-10.318c0-2.837,1.166-5.541,3.219-7.491
		c1.888-1.785,3.91-3.467,5.933-5.159c7.057-5.84,10.441-8.935,10.441-15.476c0-6.541-3.384-9.668-10.441-15.476
		c-10.751-6.902-17.447-18.634-17.932-31.407c0.485-12.773,7.181-24.494,17.932-31.407c1.661-1.372,3.343-2.744,4.891-4.21
		c4.137-3.921,10.668-3.735,14.589,0.402c3.921,4.137,3.735,10.668-0.402,14.589c-1.888,1.785-3.9,3.456-5.922,5.159
		c-7.057,5.829-10.441,8.925-10.441,15.476c0,6.552,3.384,9.678,10.441,15.476c10.741,6.902,17.437,18.613,17.932,31.376
		c-0.485,12.773-7.171,24.504-17.922,31.417c-1.671,1.383-3.343,2.744-4.901,4.22C164.039,170.997,161.491,172.008,158.85,171.998z"
		/>
</g>
<g>
	<path style="fill:#EA9D2D;" d="M156.508,453.524h-39.96l-36.194-90.857c-12.649-31.758,2.837-67.766,34.605-80.415
		c2.208-0.877,4.478-1.63,6.768-2.26l45.119-12.185l29.921,135.542c4.921,22.255-9.141,44.283-31.396,49.205
		C162.461,453.204,159.489,453.524,156.508,453.524z"/>
	<path style="fill:#EA9D2D;" d="M395.122,453.524l-30.034-0.083c-22.792-0.062-41.219-18.592-41.157-41.384
		c0.01-2.951,0.33-5.891,0.97-8.77l29.808-135.264l37.525,11.267c32.748,9.833,51.32,44.355,41.487,77.093
		c-0.526,1.754-1.135,3.487-1.816,5.19L395.122,453.524z"/>
</g>
<path style="fill:#DA922A;" d="M395.122,360.666c-1.104,0-2.198-0.175-3.25-0.526c-5.406-1.795-8.337-7.635-6.541-13.041
	l1.259-3.797c1.806-5.406-1.114-11.246-6.51-13.052c-1.052-0.351-2.146-0.526-3.26-0.537h-2.332
	c-5.695,0-10.318-4.622-10.318-10.318s4.622-10.318,10.318-10.318h2.332c17.096,0.01,30.942,13.877,30.932,30.973
	c0,3.322-0.536,6.624-1.589,9.771l-1.248,3.776C403.511,357.818,399.569,360.666,395.122,360.666z"/>
<path d="M3.58,402.039c-9.626,22.534,0.825,48.606,23.359,58.232c5.499,2.352,11.411,3.56,17.385,3.57h112.183
	c24.525,0.041,45.686-17.23,50.556-41.27h107.633c4.88,23.947,25.928,41.157,50.36,41.188l30.065,0.083l0,0
	c1.176-0.021,2.332-0.237,3.436-0.64h69.128c24.504-0.031,44.345-19.913,44.314-44.417c-0.01-5.974-1.217-11.886-3.57-17.385
	c-7.779-18.211-21.151-33.47-38.175-43.581l-23.865-13.661c2.662-33.852-18.665-64.97-51.186-74.71l-28.58-8.584
	c2.94-24.628-12.01-47.884-35.637-55.436l-12.484-3.89c-38.567-12.082-79.93-11.876-118.384,0.567l-9.668,3.095
	c-23.452,7.491-38.247,30.633-35.204,55.065l-36.215,9.781c-33.058,8.935-55.292,39.857-53.249,74.039L41.528,358.53
	C24.597,368.651,11.308,383.891,3.58,402.039z M459.907,375.616c13.206,7.883,23.576,19.758,29.601,33.914
	c5.128,12.061-0.495,26-12.556,31.128c-2.92,1.238-6.056,1.888-9.224,1.888h-57.128l30.86-77.165l0.093-0.258L459.907,375.616z
	 M420.916,316.176c4.715,9.678,6.252,20.594,4.385,31.19l-35.472,91.651l-1.671,4.127l-23.019-0.062
	c-17.096-0.041-30.911-13.939-30.87-31.035c0.01-2.208,0.248-4.416,0.722-6.572l27.61-124.255l26.671,8.006
	C403.17,293.312,414.674,303.114,420.916,316.176z M196.777,224.824l9.668-3.095c34.399-11.143,71.408-11.318,105.92-0.516
	l12.484,3.89c15.311,4.86,24.411,20.563,21.017,36.266l-0.753,3.374c-0.124,0.371-0.392,0.681-0.485,1.032l-29.807,135.284
	l-0.175,0.877H207.342l-31.283-140.928C172.521,245.398,181.528,229.684,196.777,224.824z M91.785,316.671
	c6.593-13.155,18.479-22.874,32.686-26.723l34.688-9.368l27.548,124.998c3.683,16.694-6.861,33.212-23.545,36.896
	c-2.187,0.485-4.416,0.722-6.655,0.733h-32.872l-36.669-95.427C85.296,337.162,86.977,326.287,91.785,316.671z M70.449,365.36
	c0.134,0.371,0.227,0.753,0.371,1.125l30.519,76.722H44.325c-13.103-0.031-23.7-10.679-23.669-23.792
	c0.01-3.168,0.65-6.314,1.888-9.224c6.025-14.145,16.384-26.011,29.581-33.893L70.449,365.36z"/>
<path d="M291.947,257.49h2.332c5.695,0.01,10.307,4.633,10.307,10.328c0,1.104-0.186,2.208-0.537,3.26l-1.259,3.797
	c-1.795,5.406,1.135,11.246,6.541,13.041c1.052,0.351,2.146,0.526,3.25,0.526c4.447,0,8.388-2.848,9.791-7.068l1.248-3.776
	c5.406-16.219-3.353-33.749-19.572-39.155c-3.147-1.052-6.448-1.589-9.771-1.589h-2.332c-5.695,0-10.318,4.622-10.318,10.318
	S286.251,257.49,291.947,257.49z"/>
<path d="M374.487,329.713h2.332c5.695,0.01,10.307,4.633,10.307,10.328c0,1.104-0.186,2.208-0.536,3.26l-1.259,3.797
	c-1.795,5.406,1.135,11.246,6.541,13.041c1.052,0.351,2.146,0.526,3.25,0.526c4.447,0,8.388-2.848,9.791-7.068l1.248-3.776
	c5.406-16.219-3.353-33.749-19.572-39.155c-3.147-1.052-6.448-1.589-9.771-1.589h-2.332c-5.695,0-10.318,4.622-10.318,10.318
	S368.792,329.713,374.487,329.713z"/>
<path d="M116.671,71.133c2.064-1.671,4.034-3.343,5.922-5.159c4.137-3.921,4.323-10.452,0.402-14.589s-10.452-4.323-14.589-0.402
	c-1.548,1.465-3.229,2.837-4.891,4.21C92.766,62.116,86.069,73.847,85.595,86.62c0.485,12.773,7.181,24.504,17.932,31.407
	c7.057,5.84,10.441,8.935,10.441,15.476c0,6.541-3.384,9.678-10.441,15.476c-2.064,1.671-4.044,3.353-5.933,5.159
	c-4.199,3.848-4.488,10.379-0.64,14.579c3.848,4.199,10.379,4.488,14.579,0.64c0.083-0.072,0.165-0.155,0.248-0.237
	c1.558-1.475,3.229-2.837,4.901-4.22c10.751-6.913,17.437-18.644,17.922-31.417c-0.485-12.773-7.181-24.494-17.932-31.407
	c-7.057-5.829-10.441-8.925-10.441-15.476C106.23,80.048,109.614,76.932,116.671,71.133z"/>
<path d="M170.839,71.133c2.064-1.671,4.034-3.343,5.922-5.159c4.137-3.921,4.323-10.452,0.402-14.589s-10.452-4.323-14.589-0.402
	l0,0c-1.548,1.465-3.229,2.837-4.891,4.21c-10.741,6.913-17.437,18.634-17.922,31.396c0.485,12.773,7.181,24.504,17.932,31.407
	c7.057,5.84,10.441,8.935,10.441,15.476s-3.384,9.678-10.441,15.476c-2.064,1.671-4.044,3.353-5.933,5.159
	c-4.199,3.848-4.488,10.379-0.64,14.579s10.38,4.488,14.579,0.64c0.083-0.072,0.165-0.155,0.248-0.237
	c1.558-1.475,3.229-2.837,4.901-4.22c10.72-6.902,17.416-18.592,17.922-31.335c-0.485-12.773-7.181-24.494-17.932-31.407
	c-7.057-5.829-10.441-8.925-10.441-15.476C160.397,80.099,163.782,76.932,170.839,71.133z"/>
<g>
</g>
<g>
</g>
<g>
</g>
<g>
</g>
<g>
</g>
<g>
</g>
<g>
</g>
<g>
</g>
<g>
</g>
<g>
</g>
<g>
</g>
<g>
</g>
<g>
</g>
<g>
</g>
<g>
</g>
</svg>
