<?xml version="1.0" encoding="iso-8859-1"?>
<!-- Generator: Adobe Illustrator 19.0.0, SVG Export Plug-In . SVG Version: 6.00 Build 0)  -->
<svg version="1.1" id="Capa_1" xmlns="http://www.w3.org/2000/svg" xmlns:xlink="http://www.w3.org/1999/xlink" x="0px" y="0px"
	 viewBox="0 0 512 512" style="enable-background:new 0 0 512 512;" xml:space="preserve">
<rect x="8.827" y="202.997" style="fill:#EBEBEB;" width="494.328" height="282.473"/>
<g>
	<rect x="8.827" y="397.197" style="fill:#F7BA61;" width="423.71" height="88.273"/>
	<path style="fill:#F7BA61;" d="M503.173,202.997H8.845l408.65-144.767c8.554-3.028,18.008,0.918,21.865,9.127L503.173,202.997z"/>
	<rect x="8.827" y="273.615" style="fill:#F7BA61;" width="423.71" height="88.273"/>
</g>
<rect x="8.827" y="361.888" style="fill:#F9E0A0;" width="423.71" height="35.309"/>
<g>
	<rect x="247.164" y="317.751" style="fill:#D18D28;" width="17.655" height="17.655"/>
	<rect x="282.473" y="300.097" style="fill:#D18D28;" width="17.655" height="17.655"/>
	<rect x="317.782" y="317.751" style="fill:#D18D28;" width="17.655" height="17.655"/>
	<rect x="353.091" y="300.097" style="fill:#D18D28;" width="17.655" height="17.655"/>
	<rect x="388.4" y="317.751" style="fill:#D18D28;" width="17.655" height="17.655"/>
	<rect x="141.237" y="423.679" style="fill:#D18D28;" width="17.655" height="17.655"/>
	<rect x="176.546" y="441.333" style="fill:#D18D28;" width="17.655" height="17.655"/>
	<rect x="211.855" y="423.679" style="fill:#D18D28;" width="17.655" height="17.655"/>
	<rect x="247.164" y="441.333" style="fill:#D18D28;" width="17.655" height="17.655"/>
	<rect x="282.473" y="423.679" style="fill:#D18D28;" width="17.655" height="17.655"/>
	<rect x="317.782" y="441.333" style="fill:#D18D28;" width="17.655" height="17.655"/>
	<rect x="353.091" y="423.679" style="fill:#D18D28;" width="17.655" height="17.655"/>
	<rect x="388.4" y="441.333" style="fill:#D18D28;" width="17.655" height="17.655"/>
</g>
<path style="fill:#5E8569;" d="M238.354,123.551c-4.873,0-8.827-3.955-8.827-8.827V87.915c0-25.599,22.271-48.047,43.112-60.546
	l14.124-8.483c4.219-2.436,9.622-0.989,12.058,3.24c2.375,4.114,1.059,9.375-2.966,11.89l-14.124,8.483
	c-15.951,9.551-34.55,27.206-34.55,45.416v26.808C247.182,119.605,243.227,123.551,238.354,123.551z"/>
<path style="fill:#C7463B;" d="M8.845,202.997h52.964v4.414H317.8v-4.414l3.231-9.71c9.375-28.133,9.657-58.507,0.812-86.816
	L317.8,93.538L8.845,202.997z"/>
<circle style="fill:#DC4D41;" cx="238.337" cy="123.551" r="44.136"/>
<path style="fill:#BD4238;" d="M317.8,202.997v57.377c0,12.19-9.878,22.068-22.068,22.068h-8.827
	c-12.19,0-22.068-9.878-22.068-22.068l0,0c0-12.19-9.878-22.068-22.068-22.068l0,0c-12.19,0-22.068,9.878-22.068,22.068v48.55
	c0,14.627-11.855,26.482-26.482,26.482l0,0c-14.627,0-26.482-11.855-26.482-26.482v-44.136c0-14.627-11.855-26.482-26.482-26.482
	l0,0c-14.627,0-26.482,11.855-26.482,26.482l0,0c0,14.627-11.855,26.482-26.482,26.482l0,0c-14.627,0-26.482-11.855-26.482-26.482
	v-61.791L317.8,202.997L317.8,202.997z"/>
<path d="M511.373,199.889c-0.053-0.15-0.079-0.3-0.141-0.441c-0.062-0.141,0-0.141-0.071-0.212L447.349,63.631
	c-5.764-12.341-19.976-18.264-32.802-13.682L283.682,96.292c-7.168-11.873-18.705-20.47-32.14-23.94
	c7.327-12.367,17.725-22.642,30.18-29.819l14.124-8.483c4.131-2.586,5.385-8.033,2.798-12.164c-2.525-4.025-7.777-5.341-11.89-2.966
	l-14.124,8.483c-17.593,9.869-31.549,25.122-39.829,43.51c-28.874,2.816-49.989,28.503-47.173,57.377
	c0.088,0.883,0.194,1.774,0.327,2.648L5.879,194.717c-0.079,0.035-0.159,0.079-0.23,0.132c-0.406,0.185-0.786,0.397-1.148,0.653
	c-0.574,0.3-1.112,0.662-1.607,1.077c-0.3,0.3-0.583,0.636-0.83,0.98c-0.415,0.486-0.777,1.024-1.077,1.589
	c-0.185,0.397-0.335,0.803-0.45,1.218c-0.212,0.636-0.344,1.289-0.397,1.96c0,0.247-0.141,0.45-0.141,0.706V485.47
	c0,4.873,3.955,8.827,8.827,8.827h494.345c4.873,0,8.827-3.955,8.827-8.827V202.997c0-0.132-0.071-0.238-0.071-0.362
	C511.885,201.699,511.7,200.772,511.373,199.889z M420.452,66.597c4.272-1.509,8.986,0.459,10.919,4.555l57.889,123.017H329.964
	c9.436-29.351,9.542-60.899,0.3-90.312l-1.501-4.802L420.452,66.597z M308.973,260.374c0,7.309-5.932,13.241-13.241,13.241h-8.827
	c-7.309,0-13.241-5.932-13.241-13.241c0-17.063-13.832-30.895-30.895-30.895s-30.895,13.832-30.895,30.895v48.55
	c0,9.754-7.9,17.655-17.655,17.655c-9.754,0-17.655-7.9-17.655-17.655v-44.136c0-19.499-15.81-35.309-35.309-35.309
	s-35.309,15.81-35.309,35.309c0,9.754-7.9,17.655-17.655,17.655s-17.655-7.9-17.655-17.655v-52.964h238.337V260.374z
	 M256.459,264.787h-26.932v-4.414c0-7.309,5.932-13.241,13.241-13.241s13.241,5.932,13.241,13.241
	C256.053,261.857,256.203,263.331,256.459,264.787z M158.909,264.787H123.6c0-9.754,7.9-17.655,17.655-17.655
	C151.008,247.133,158.909,255.042,158.909,264.787z M52.981,211.824v52.964H17.672v-52.964H52.981z M17.672,370.715h406.055v17.655
	H17.672L17.672,370.715L17.672,370.715z M423.727,353.06H17.672v-70.618h40.217c9.578,16.789,30.957,22.633,47.747,13.056
	c5.446-3.107,9.957-7.618,13.056-13.056h40.217v26.482c0,19.499,15.81,35.309,35.309,35.309s35.309-15.81,35.309-35.309v-26.482
	h35.821c5.747,5.658,13.488,8.827,21.556,8.827h8.827c8.068,0,15.81-3.169,21.556-8.827h106.439V353.06z M229.527,89.495v25.228
	c0,4.873,3.955,8.827,8.827,8.827c4.873,0,8.827-3.955,8.827-8.827V89.495c18.882,4.873,30.233,24.134,25.361,43.015
	s-24.134,30.233-43.015,25.361c-18.882-4.873-30.233-24.134-25.361-43.015C207.379,102.418,217.089,92.708,229.527,89.495z
	 M191.296,147.755c13.523,25.935,45.513,35.998,71.448,22.474c20.938-10.919,32.114-34.373,27.418-57.51l21.909-7.75l1.315,4.158
	c8.342,26.535,8.077,55.02-0.759,81.396l-1.192,3.646H60.211L191.296,147.755z M17.672,476.642v-70.618h406.055v70.618H17.672z
	 M494.345,476.642h-52.964V273.615c0-4.873-3.955-8.827-8.827-8.827H326.177c0.256-1.457,0.406-2.931,0.45-4.414v-48.55h167.718
	V476.642z"/>
<rect x="247.164" y="317.751" width="17.655" height="17.655"/>
<rect x="282.473" y="300.097" width="17.655" height="17.655"/>
<rect x="317.782" y="317.751" width="17.655" height="17.655"/>
<rect x="353.091" y="300.097" width="17.655" height="17.655"/>
<rect x="388.4" y="317.751" width="17.655" height="17.655"/>
<rect x="141.237" y="423.679" width="17.655" height="17.655"/>
<rect x="176.546" y="441.333" width="17.655" height="17.655"/>
<rect x="211.855" y="423.679" width="17.655" height="17.655"/>
<rect x="247.164" y="441.333" width="17.655" height="17.655"/>
<rect x="282.473" y="423.679" width="17.655" height="17.655"/>
<rect x="317.782" y="441.333" width="17.655" height="17.655"/>
<rect x="353.091" y="423.679" width="17.655" height="17.655"/>
<rect x="388.4" y="441.333" width="17.655" height="17.655"/>
<g>
</g>
<g>
</g>
<g>
</g>
<g>
</g>
<g>
</g>
<g>
</g>
<g>
</g>
<g>
</g>
<g>
</g>
<g>
</g>
<g>
</g>
<g>
</g>
<g>
</g>
<g>
</g>
<g>
</g>
</svg>
