<?xml version="1.0" encoding="iso-8859-1"?>
<!-- Generator: Adobe Illustrator 19.0.0, SVG Export Plug-In . SVG Version: 6.00 Build 0)  -->
<svg version="1.1" id="Capa_1" xmlns="http://www.w3.org/2000/svg" xmlns:xlink="http://www.w3.org/1999/xlink" x="0px" y="0px"
	 viewBox="0 0 512.001 512.001" style="enable-background:new 0 0 512.001 512.001;" xml:space="preserve">
<circle style="fill:#F9E0A0;" cx="256.036" cy="85.544" r="76.759"/>
<path style="fill:#8F563B;" d="M213.383,76.998c0,9.424,7.633,17.058,17.058,17.058s17.058-7.633,17.058-17.058V59.941
	c0-9.424,7.633-17.058,17.058-17.058c9.424,0,17.058,7.633,17.058,17.058s7.633,17.058,17.058,17.058
	c9.424,0,17.058-7.633,17.058-17.058v-8.529h8.981c-18.78-37.936-64.759-53.467-102.695-34.678
	c-17.902,8.861-31.642,24.367-38.286,43.215h29.655V76.998z"/>
<circle style="fill:#85BC94;" cx="315.737" cy="187.889" r="68.23"/>
<g>
	<rect x="290.151" y="187.889" style="fill:#8F563B;" width="17.058" height="17.058"/>
	<rect x="332.795" y="196.418" style="fill:#8F563B;" width="17.058" height="17.058"/>
	<rect x="324.266" y="162.303" style="fill:#8F563B;" width="17.058" height="17.058"/>
</g>
<polygon style="fill:#F7BA61;" points="256.027,503.437 170.739,247.574 341.315,247.574 "/>
<g>
	<path style="fill:#EA9D2D;" d="M221.912,341.391c-4.708,0-8.529-3.829-8.52-8.537c0-1.68,0.503-3.326,1.433-4.725l17.058-25.586
		c2.618-3.915,7.906-4.981,11.829-2.362c3.923,2.618,4.981,7.915,2.362,11.829l-17.058,25.586
		C227.43,339.975,224.769,341.399,221.912,341.391z"/>
	<path style="fill:#EA9D2D;" d="M273.085,341.391c-4.708,0-8.529-3.829-8.52-8.537c0-1.68,0.503-3.326,1.433-4.725l17.058-25.586
		c2.618-3.923,7.906-4.981,11.829-2.362c3.923,2.618,4.981,7.906,2.362,11.829l-17.058,25.586
		C278.603,339.975,275.942,341.399,273.085,341.391z"/>
</g>
<polygon style="fill:#DBDBDB;" points="312.889,332.862 199.166,332.862 256.027,503.437 "/>
<path style="fill:#F790B0;" d="M264.556,187.872c0.06-37.68-30.439-68.281-68.119-68.333c-37.68-0.06-68.281,30.439-68.333,68.119
	c-0.026,16.657,6.038,32.742,17.058,45.237v48.793c0,9.424,7.633,17.058,17.058,17.058c9.424,0,17.058-7.633,17.058-17.058v-17.058
	c0.009-3.574,1.143-7.045,3.241-9.936c9.117,1.876,18.516,1.876,27.633,0c2.098,2.891,3.232,6.362,3.241,9.936
	c0,9.424,7.633,17.058,17.058,17.058s17.058-7.633,17.058-17.058v-31.736C258.492,220.478,264.564,204.461,264.556,187.872z"/>
<path d="M336.411,114.022c3.258-9.143,4.921-18.789,4.904-28.495C341.451,38.423,303.37,0.137,256.266,0
	s-85.39,37.945-85.527,85.049c-0.026,9.868,1.655,19.667,4.981,28.955c-40.776,11.301-64.665,53.51-53.373,94.277
	c2.806,10.124,7.667,19.565,14.277,27.736v45.672c-0.051,14.073,11.309,25.527,25.382,25.586c6.439,0.026,12.657-2.388,17.39-6.763
	l68.537,205.62c1.467,4.478,6.294,6.908,10.763,5.441c2.576-0.844,4.597-2.866,5.441-5.441l82.832-248.512
	c0.563-0.068,1.109-0.188,1.646-0.367c38.294-18.192,54.584-63.983,36.392-102.269c-9.518-20.026-27.232-34.968-48.58-40.964
	L336.411,114.022z M256.027,17.297c21.51,0.017,41.748,10.209,54.584,27.471c-2.115,1.552-3.386,4.017-3.411,6.644v8.529
	c0,4.708-3.821,8.529-8.529,8.529c-4.708,0-8.529-3.821-8.529-8.529c0-14.132-11.454-25.586-25.586-25.586
	c-14.132,0-25.586,11.454-25.586,25.586v17.058c0,4.708-3.821,8.529-8.529,8.529s-8.529-3.821-8.529-8.529V59.941
	c0-4.708-3.821-8.529-8.529-8.529h-16.358C209.196,30.329,231.686,17.331,256.027,17.297z M187.797,85.527
	c0.017-5.757,0.776-11.488,2.243-17.058h14.814v8.529c0,14.132,11.454,25.586,25.586,25.586c14.132,0,25.586-11.454,25.586-25.586
	V59.941c0-4.708,3.821-8.529,8.529-8.529s8.529,3.821,8.529,8.529c0.026,14.132,11.505,25.561,25.638,25.535
	c10.345-0.017,19.659-6.26,23.599-15.821c3.42,13.859,2.303,28.452-3.181,41.629c-1.134-0.051-2.252-0.171-3.412-0.171
	c-23.215-0.085-45.194,10.431-59.702,28.554c-14.55-18.064-36.503-28.563-59.701-28.554c-1.177,0-2.32,0.128-3.48,0.179
	C189.503,103.113,187.788,94.363,187.797,85.527z M256.027,236.043c0.853,1.049,1.8,2.004,2.704,3.002h-2.704V236.043z
	 M170.739,281.689c0,4.708-3.821,8.529-8.529,8.529c-4.708,0-8.529-3.821-8.529-8.529v-48.793c0-2.072-0.759-4.077-2.132-5.638
	c-21.808-24.725-19.446-62.456,5.288-84.264s62.456-19.446,84.264,5.288c19.898,22.567,19.898,56.409,0,78.977
	c-1.373,1.561-2.132,3.565-2.132,5.638v31.736c0,4.708-3.821,8.529-8.529,8.529c-4.708,0-8.529-3.821-8.529-8.529
	c0-5.356-1.697-10.584-4.853-14.917c-1.962-2.721-5.339-4.043-8.631-3.369c-7.983,1.638-16.222,1.638-24.205,0
	c-3.292-0.674-6.67,0.648-8.631,3.369c-3.156,4.333-4.853,9.561-4.853,14.917L170.739,281.689L170.739,281.689z M211.004,341.391
	h90.047l-45.023,135.079L211.004,341.391z M306.739,324.333h-17.723l8.222-12.324c2.618-3.923,1.561-9.211-2.362-11.829
	c-3.923-2.618-9.211-1.561-11.829,2.362l-14.525,21.791h-30.704l8.222-12.324c2.618-3.915,1.561-9.211-2.362-11.829
	c-3.915-2.618-9.211-1.552-11.829,2.362l-14.499,21.791h-12.034l-17.518-52.563v-7.139c0-0.162,0-0.316,0-0.469
	c5.672,0.623,11.386,0.623,17.058,0c0,0.154,0,0.307,0,0.469c0,14.132,11.454,25.586,25.586,25.586
	c14.132,0,25.586-11.454,25.586-25.586v-8.529h73.458L306.739,324.333z M344.82,239.838c-1.1-0.512-2.294-0.785-3.505-0.793h-56.222
	c-7.77-4.674-14.38-11.053-19.318-18.661c9.757-20.58,9.757-44.452,0-65.032c17.945-27.625,54.883-35.463,82.507-17.518
	c16.938,11.002,27.156,29.842,27.147,50.038C375.319,209.442,363.635,229.288,344.82,239.838z"/>
<rect x="290.151" y="187.889" width="17.058" height="17.058"/>
<rect x="332.795" y="196.418" width="17.058" height="17.058"/>
<rect x="324.266" y="162.303" width="17.058" height="17.058"/>
<g>
</g>
<g>
</g>
<g>
</g>
<g>
</g>
<g>
</g>
<g>
</g>
<g>
</g>
<g>
</g>
<g>
</g>
<g>
</g>
<g>
</g>
<g>
</g>
<g>
</g>
<g>
</g>
<g>
</g>
</svg>
