<?xml version="1.0" encoding="iso-8859-1"?>
<!-- Generator: Adobe Illustrator 19.0.0, SVG Export Plug-In . SVG Version: 6.00 Build 0)  -->
<svg version="1.1" id="Capa_1" xmlns="http://www.w3.org/2000/svg" xmlns:xlink="http://www.w3.org/1999/xlink" x="0px" y="0px"
	 viewBox="0 0 512 512" style="enable-background:new 0 0 512 512;" xml:space="preserve">
<circle style="fill:#EBEBEB;" cx="256" cy="256" r="247.467"/>
<g>
	<path style="fill:#F4CA62;" d="M356.164,97.212c-26.436-10.027-56.004,3.277-66.031,29.713l0,0l95.744,36.318
		C395.904,136.806,382.601,107.238,356.164,97.212L356.164,97.212z"/>
	<circle style="fill:#F4CA62;" cx="247.467" cy="256" r="170.667"/>
</g>
<g style="enable-background:new    ;">
	<path d="M435.243,443.733v-0.051l0.06-0.06c0.154-0.154,0.222-0.222,0.222-0.307c0-0.068-0.026-0.119-0.119-0.119
		c-0.06,0-0.102,0.026-0.128,0.051l-0.034-0.06c0.051-0.034,0.102-0.06,0.179-0.06c0.128,0,0.179,0.085,0.179,0.171
		c0,0.119-0.077,0.196-0.196,0.324l-0.051,0.043h0.265v0.068H435.243z"/>
	<path d="M436.07,443.435c0,0.196-0.068,0.307-0.196,0.307c-0.119,0-0.196-0.111-0.196-0.299c0-0.196,0.085-0.307,0.205-0.307
		C436.002,443.136,436.07,443.238,436.07,443.435z M435.746,443.443c0,0.154,0.051,0.239,0.119,0.239
		c0.085,0,0.128-0.102,0.128-0.247s-0.043-0.239-0.128-0.239C435.797,443.196,435.746,443.273,435.746,443.443z"/>
	<path d="M436.326,443.435c0-0.051,0-0.102-0.009-0.145h0.077l0.009,0.077c0.034-0.051,0.085-0.085,0.154-0.085
		c0.119,0,0.188,0.094,0.188,0.222c0,0.162-0.094,0.23-0.196,0.23c-0.06,0-0.111-0.026-0.145-0.068v0.239h-0.077L436.326,443.435
		L436.326,443.435z M436.403,443.554c0,0.017,0,0.026,0.009,0.034c0.009,0.06,0.06,0.102,0.128,0.102
		c0.085,0,0.137-0.077,0.137-0.179c0-0.085-0.051-0.162-0.137-0.162c-0.06,0-0.111,0.034-0.128,0.094
		c0,0.017-0.009,0.026-0.009,0.034V443.554z"/>
	<path d="M436.83,443.29l0.068,0.094c0.017,0.026,0.026,0.051,0.043,0.077c0.017-0.026,0.026-0.051,0.043-0.077l0.068-0.094h0.085
		l-0.154,0.213l0.162,0.23h-0.094l-0.068-0.102c-0.017-0.026-0.034-0.051-0.051-0.077c-0.017,0.026-0.034,0.051-0.051,0.077
		l-0.06,0.102h-0.085l0.162-0.222l-0.154-0.213h0.085V443.29z"/>
</g>
<path style="fill:#6FBBC6;" d="M444.501,234.274c-27.998-24.499-63.94-38.007-101.146-38.007H243.354
	c-31.044,0-61.747,6.511-90.112,19.123l-33.775,15.01c0,0-19.106-34.133-42.667-34.133H51.2c0,32.99,26.743,59.733,59.733,59.733
	c-32.99,0-59.733,26.743-59.733,59.733h25.6c23.561,0,42.667-34.133,42.667-34.133l33.775,15.01
	c28.365,12.612,59.068,19.123,90.112,19.123h100.002c37.205,0,73.148-13.508,101.146-38.007L469.333,256L444.501,234.274z"/>
<g>
	<path style="fill:#69B0BB;" d="M382.967,201.523c-5.513-1.451-11.093-2.586-16.734-3.413l-2.133,8.815
		c-7.552,32.273-7.552,65.86,0,98.133l2.133,8.815c5.641-0.828,11.221-1.963,16.734-3.413l-2.287-9.387
		c-6.929-29.628-6.929-60.467,0-90.095L382.967,201.523z"/>
	<rect x="401.067" y="247.467" style="fill:#69B0BB;" width="17.067" height="17.067"/>
	<rect x="298.667" y="196.267" style="fill:#69B0BB;" width="34.133" height="119.467"/>
</g>
<rect x="264.533" y="196.267" style="fill:#6FBBC6;" width="34.133" height="119.467"/>
<path style="fill:#F3AF3E;" d="M392.474,120.567c-13.542-30.08-48.905-43.486-78.993-29.943
	c-14.447,6.502-25.711,18.475-31.326,33.28l-3.021,7.97l111.693,42.377l3.021-7.987
	C399.514,151.458,399.019,135.006,392.474,120.567z M353.143,105.207c7.834,2.953,14.618,8.166,19.49,14.967l-30.345,13.653
	l-13.653-30.345c8.158-1.86,16.683-1.271,24.508,1.698L353.143,105.207L353.143,105.207z M313.114,110.566l8.661,19.26l-19.84-7.526
	c2.927-4.608,6.724-8.602,11.179-11.759V110.566z M380.134,151.962l-19.84-7.526l19.251-8.661
	c1.237,5.299,1.434,10.786,0.589,16.162V151.962z"/>
<path style="fill:#EAC25E;" d="M247.467,401.067c-29.559,0.085-58.325-9.506-81.92-27.307l10.24-13.653
	c42.479,31.855,100.881,31.855,143.36,0l10.24,13.653C305.792,391.561,277.026,401.152,247.467,401.067z"/>
<circle style="fill:#A83B32;" cx="162.133" cy="110.933" r="25.6"/>
<circle style="fill:#5E8569;" cx="119.467" cy="145.067" r="25.6"/>
<rect x="145.068" y="337.773" transform="matrix(0.7071 -0.7071 0.7071 0.7071 -202.3845 211.0776)" style="fill:#EAC25E;" width="17.067" height="24.132"/>
<path style="fill:#AAC16B;" d="M273.067,110.933c-28.279,0-51.2,22.921-51.2,51.2h102.4
	C324.267,133.854,301.346,110.933,273.067,110.933z"/>
<path style="fill:#5E8569;" d="M273.067,102.4c-32.973,0.043-59.691,26.761-59.733,59.733v8.533H332.8v-8.533
	C332.757,129.161,306.039,102.443,273.067,102.4z M296.482,126.652l-23.415,23.415l-23.415-23.415
	C263.791,117.069,282.342,117.069,296.482,126.652z M237.559,138.692l14.908,14.908h-21.214
	C232.371,148.267,234.513,143.206,237.559,138.692z M293.666,153.6l14.908-14.908c3.046,4.514,5.188,9.574,6.306,14.908H293.666z"/>
<polygon style="fill:#69B0BB;" points="264.533,315.733 239.437,315.733 230.4,315.358 230.4,196.642 240.939,196.267 
	264.533,196.267 "/>
<rect x="401.067" y="247.467" width="17.067" height="17.067"/>
<path d="M256,0C114.611,0,0,114.611,0,256s114.611,256,256,256s256-114.611,256-256C511.838,114.679,397.321,0.162,256,0z
	 M256,494.933C124.041,494.933,17.067,387.96,17.067,256S124.041,17.067,256,17.067S494.933,124.041,494.933,256
	C494.78,387.9,387.9,494.78,256,494.933z"/>
<path d="M474.948,249.574l-24.832-21.734c-9.318-8.081-19.524-15.07-30.43-20.838c-5.052-17.826-12.877-34.748-23.177-50.15
	c6.554-32.273-14.293-63.744-46.558-70.298c-11.708-2.381-23.868-1.186-34.893,3.43c-40.986-16.478-86.588-17.348-128.179-2.458
	c-12.655-13.747-34.057-14.635-47.812-1.98c-7.415,6.818-11.401,16.589-10.871,26.65c-2.842-0.802-5.777-1.229-8.73-1.263
	c-18.85,0-34.133,15.283-34.133,34.133c0.026,7.561,2.586,14.891,7.279,20.821c-4.147,7.108-7.799,14.49-10.94,22.093
	c-1.604-0.154-3.226-0.247-4.873-0.247H51.2c-4.71,0-8.533,3.823-8.533,8.533c0.017,24.849,13.534,47.727,35.294,59.733
	c-21.76,12.006-35.277,34.884-35.294,59.733c0,4.71,3.823,8.533,8.533,8.533h25.6c1.707,0,3.337-0.094,4.975-0.247
	c37.504,91.52,142.089,135.305,233.609,97.809c50.901-20.855,89.395-63.957,104.397-116.89
	c10.871-5.751,21.043-12.723,30.336-20.779l24.832-21.726c3.55-3.098,3.908-8.491,0.811-12.041
	C475.503,250.103,475.238,249.83,474.948,249.574L474.948,249.574z M296.482,126.694l-23.415,23.373l-23.415-23.415
	c14.14-9.583,32.691-9.583,46.831,0V126.694z M237.559,138.735l14.908,14.865h-21.214c1.118-5.333,3.26-10.394,6.306-14.908V138.735
	z M308.574,138.735c3.038,4.506,5.18,9.549,6.306,14.865h-21.214L308.574,138.735z M308.625,114.295
	c1.408-1.34,2.901-2.577,4.48-3.712l6.272,13.935c-3.149-3.857-6.758-7.305-10.752-10.266L308.625,114.295z M379.546,135.791
	c1.246,5.316,1.442,10.82,0.589,16.213l-19.831-7.526L379.546,135.791z M353.143,105.225c7.834,2.953,14.618,8.166,19.49,14.967
	l-30.345,13.653l-13.653-30.345c8.158-1.869,16.683-1.28,24.508,1.681L353.143,105.225z M145.647,106.556
	c2.005-7.467,8.755-12.663,16.486-12.689c1.502,0,2.995,0.196,4.446,0.589c9.105,2.441,14.507,11.802,12.066,20.907
	c-2.441,9.105-11.802,14.507-20.907,12.066c-9.105-2.441-14.507-11.802-12.066-20.898L145.647,106.556z M119.467,128
	c9.429,0,17.067,7.637,17.067,17.067c0,9.429-7.637,17.067-17.067,17.067s-17.067-7.637-17.067-17.067
	C102.4,135.637,110.037,128,119.467,128z M106.368,176.572c17.408,7.236,37.385-1.015,44.621-18.423
	c1.724-4.147,2.611-8.593,2.611-13.082c0-0.384-0.102-0.742-0.111-1.126c18.082,4.864,36.685-5.854,41.54-23.936
	c1.519-5.658,1.553-11.622,0.085-17.297c33.015-11.17,68.736-11.511,101.956-0.964c-1.408,1.331-2.756,2.705-4.036,4.164
	c-30.959-11.119-65.075,4.958-76.194,35.917c-2.338,6.511-3.524,13.389-3.507,20.309v8.533H332.8v-8.533
	c-0.026-3.43-0.341-6.861-0.947-10.24l3.123,1.186l0,0l51.473,19.533c4.736,7.936,8.781,16.265,12.092,24.9
	c-17.69-6.434-36.369-9.745-55.194-9.779H240.64l-6.323,0.222c-1.263,0.051-2.56,0.068-3.797,0.137h-0.418h-0.119
	c-27.699,1.57-54.878,8.158-80.213,19.447l-25.788,11.511c-4.966-11.657-14.054-21.077-25.523-26.453
	C100.796,187.11,103.441,181.769,106.368,176.572z M364.075,305.067l0.119,0.486c-6.903,1.05-13.867,1.596-20.847,1.647h-2.014
	V204.8h2.014c6.989,0.043,13.961,0.597,20.873,1.647l-0.119,0.486c-7.552,32.273-7.552,65.86,0,98.133H364.075z M273.067,307.2
	V204.8h17.067v102.4H273.067z M156.706,288.811L128,276.053v-40.107l28.706-12.757c20.659-9.216,42.658-15.053,65.161-17.297
	v100.215C199.364,303.863,177.365,298.027,156.706,288.811z M243.354,307.2c-1.485,0-2.944-0.085-4.42-0.111V204.911l1.818-0.043
	L256,204.8v102.4H243.354z M307.2,204.8h17.067v102.4H307.2V204.8z M60.442,204.8H76.8c18.85,0,34.133,15.283,34.133,34.133v8.533
	C85.956,247.433,64.64,229.419,60.442,204.8z M60.442,307.2c4.198-24.619,25.515-42.633,50.492-42.667v8.533
	c0,18.85-15.283,34.133-34.133,34.133H60.442z M247.467,418.133c-64.964-0.128-123.622-38.929-149.137-98.679
	c11.529-5.359,20.668-14.805,25.651-26.505l25.796,11.46c25.31,11.281,52.463,17.869,80.137,19.439h0.137h0.35
	c4.267,0.239,8.636,0.375,12.979,0.375h99.968c18.85-0.026,37.547-3.328,55.262-9.779
	C374.468,376.9,314.428,418.099,247.467,418.133z M438.886,271.3c-16.691,14.592-36.506,25.156-57.924,30.891l-0.282-1.143
	c-6.929-29.628-6.929-60.467,0-90.095l0.282-1.143c21.419,5.734,41.233,16.299,57.924,30.891l17.485,15.3L438.886,271.3z"/>
<path d="M247.467,384c-25.865,0.077-51.038-8.311-71.68-23.893l-10.24,13.653c48.555,36.395,115.285,36.395,163.84,0l-10.24-13.653
	C298.505,375.689,273.331,384.077,247.467,384z"/>
<rect x="145.068" y="337.773" transform="matrix(0.7071 -0.7071 0.7071 0.7071 -202.3845 211.0776)" width="17.067" height="24.132"/>
<g>
</g>
<g>
</g>
<g>
</g>
<g>
</g>
<g>
</g>
<g>
</g>
<g>
</g>
<g>
</g>
<g>
</g>
<g>
</g>
<g>
</g>
<g>
</g>
<g>
</g>
<g>
</g>
<g>
</g>
</svg>
