<?xml version="1.0" encoding="iso-8859-1"?>
<!-- Generator: Adobe Illustrator 19.0.0, SVG Export Plug-In . SVG Version: 6.00 Build 0)  -->
<svg version="1.1" id="Capa_1" xmlns="http://www.w3.org/2000/svg" xmlns:xlink="http://www.w3.org/1999/xlink" x="0px" y="0px"
	 viewBox="0 0 512.006 512.006" style="enable-background:new 0 0 512.006 512.006;" xml:space="preserve">
<rect x="33.031" y="239.533" style="fill:#A83B32;" width="445.871" height="41.284"/>
<polygon style="fill:#FBB540;" points="478.934,190 33.064,190 255.999,82.66 "/>
<path style="fill:#A66444;" d="M255.999,140.458c-4.558,0-8.257-3.699-8.257-8.257V57.89c0-4.558,3.699-8.257,8.257-8.257
	c4.558,0,8.257,3.699,8.257,8.257v74.312C264.256,136.759,260.557,140.458,255.999,140.458z"/>
<g>
	<rect x="33.031" y="189.991" style="fill:#F9E0A0;" width="445.871" height="49.541"/>
	<rect x="33.031" y="280.817" style="fill:#F9E0A0;" width="445.871" height="49.541"/>
</g>
<path style="fill:#A66444;" d="M49.577,379.908h412.843c18.239,0,33.027,14.788,33.027,33.027l0,0
	c0,18.239-14.788,33.027-33.027,33.027H49.577c-18.239,0-33.027-14.788-33.027-33.027l0,0
	C16.55,394.696,31.338,379.908,49.577,379.908z"/>
<rect x="33.031" y="445.954" style="fill:#FBB540;" width="445.871" height="49.541"/>
<rect x="33.031" y="330.358" style="fill:#6B9777;" width="445.871" height="49.541"/>
<g>
	<path style="fill:#C7463B;" d="M28.935,239.541h123.853c11.403,0,20.642,9.239,20.642,20.642l0,0
		c0,11.403-9.239,20.642-20.642,20.642H28.935c-11.403,0-20.642-9.239-20.642-20.642l0,0
		C8.293,248.78,17.532,239.541,28.935,239.541z"/>
	<path style="fill:#C7463B;" d="M194.072,239.541h123.853c11.403,0,20.642,9.239,20.642,20.642l0,0
		c0,11.403-9.239,20.642-20.642,20.642H194.072c-11.403,0-20.642-9.239-20.642-20.642l0,0
		C173.43,248.78,182.67,239.541,194.072,239.541z"/>
	<path style="fill:#C7463B;" d="M359.21,239.541h123.853c11.403,0,20.642,9.239,20.642,20.642l0,0
		c0,11.403-9.239,20.642-20.642,20.642H359.21c-11.403,0-20.642-9.239-20.642-20.642l0,0
		C338.568,248.78,347.807,239.541,359.21,239.541z"/>
</g>
<g>
	<polygon style="fill:#FBB540;" points="33.064,330.366 115.632,379.908 181.687,330.366 	"/>
	<polygon style="fill:#FBB540;" points="181.687,330.366 264.256,379.908 330.311,330.366 	"/>
	<polygon style="fill:#FBB540;" points="330.311,330.366 412.879,379.908 478.934,330.366 	"/>
</g>
<g>
	<path style="fill:#744630;" d="M90.862,429.449c-1.049,0-2.089-0.198-3.063-0.586l-41.284-16.514
		c-4.236-1.693-6.3-6.498-4.607-10.734s6.498-6.3,10.734-4.607l41.284,16.514c4.236,1.684,6.3,6.49,4.616,10.726
		C97.285,427.393,94.247,429.449,90.862,429.449z"/>
	<path style="fill:#744630;" d="M165.173,429.449c-1.049,0-2.089-0.198-3.063-0.586l-41.284-16.514
		c-4.236-1.693-6.3-6.498-4.607-10.734c1.693-4.236,6.498-6.3,10.734-4.607l41.284,16.514c4.236,1.684,6.3,6.49,4.616,10.726
		C171.597,427.393,168.559,429.449,165.173,429.449z"/>
	<path style="fill:#744630;" d="M239.485,429.449c-1.049,0-2.089-0.198-3.063-0.586l-41.284-16.514
		c-4.236-1.693-6.3-6.498-4.607-10.734s6.498-6.3,10.734-4.607l41.284,16.514c4.236,1.684,6.3,6.49,4.616,10.726
		C245.909,427.393,242.871,429.449,239.485,429.449z"/>
	<path style="fill:#744630;" d="M313.797,429.449c-1.049,0-2.089-0.198-3.063-0.586l-41.284-16.514
		c-4.236-1.693-6.3-6.498-4.607-10.734c1.693-4.236,6.498-6.3,10.734-4.607l41.284,16.514c4.236,1.684,6.3,6.49,4.616,10.726
		C320.221,427.393,317.182,429.449,313.797,429.449z"/>
	<path style="fill:#744630;" d="M388.109,429.449c-1.049,0-2.089-0.198-3.063-0.586l-41.284-16.514
		c-4.236-1.693-6.3-6.498-4.607-10.734c1.693-4.236,6.498-6.3,10.734-4.607l41.284,16.514c4.236,1.684,6.3,6.49,4.616,10.726
		C394.533,427.393,391.494,429.449,388.109,429.449z"/>
	<path style="fill:#744630;" d="M462.421,429.449c-1.049,0-2.089-0.198-3.063-0.586l-41.284-16.514
		c-4.236-1.693-6.3-6.498-4.607-10.734c1.693-4.236,6.498-6.3,10.734-4.607l41.284,16.514c4.236,1.684,6.3,6.49,4.616,10.726
		C468.845,427.393,465.806,429.449,462.421,429.449z"/>
</g>
<g>
	<rect x="148.627" y="156.964" style="fill:#DA922A;" width="16.514" height="16.514"/>
	<rect x="198.168" y="132.193" style="fill:#DA922A;" width="16.514" height="16.514"/>
	<rect x="247.709" y="156.964" style="fill:#DA922A;" width="16.514" height="16.514"/>
	<rect x="297.25" y="132.193" style="fill:#DA922A;" width="16.514" height="16.514"/>
	<rect x="346.792" y="156.964" style="fill:#DA922A;" width="16.514" height="16.514"/>
</g>
<circle style="fill:#C7463B;" cx="255.966" cy="49.625" r="33.027"/>
<path d="M487.191,330.366v-41.705c15.729-2.18,26.719-16.704,24.539-32.433c-1.767-12.749-11.791-22.772-24.539-24.539V190
	c0-0.149-0.074-0.272-0.083-0.421c-0.05-0.718-0.198-1.428-0.429-2.105c-0.091-0.281-0.124-0.578-0.239-0.826
	c-0.396-0.917-0.958-1.759-1.651-2.477c-0.058-0.05-0.132-0.083-0.19-0.132c-0.611-0.594-1.313-1.098-2.072-1.478L278.334,84.254
	c19.172-12.336,24.721-37.882,12.385-57.055s-37.883-24.721-57.055-12.385s-24.721,37.883-12.385,57.055
	c3.195,4.971,7.423,9.19,12.385,12.385L29.48,182.568c-0.76,0.38-1.461,0.883-2.072,1.478c-0.058,0.05-0.132,0.083-0.19,0.132
	c-0.694,0.718-1.255,1.561-1.651,2.477c-0.116,0.264-0.149,0.561-0.239,0.826c-0.231,0.685-0.38,1.395-0.429,2.114
	c0,0.149-0.083,0.272-0.083,0.421v41.705c-15.729,2.18-26.719,16.704-24.539,32.433c1.767,12.749,11.791,22.772,24.539,24.539
	v91.214c0,0.066,0,0.116,0,0.182c-18.14,13.434-21.955,39.03-8.521,57.171c2.403,3.245,5.276,6.118,8.521,8.521
	c0,0.066,0,0.116,0,0.182v49.541c0,4.558,3.699,8.257,8.257,8.257h445.863c4.558,0,8.257-3.699,8.257-8.257v-49.541
	c0-0.066,0-0.116,0-0.182c18.14-13.434,21.955-39.03,8.521-57.171c-2.403-3.245-5.276-6.118-8.521-8.521c0-0.066,0-0.116,0-0.182
	V330.366z M41.32,198.256h429.357v33.027H41.32L41.32,198.256L41.32,198.256z M194.072,247.798h123.853
	c6.837,0,12.385,5.549,12.385,12.385c0,6.837-5.549,12.385-12.385,12.385H194.072c-6.837,0-12.385-5.549-12.385-12.385
	C181.687,253.346,187.236,247.798,194.072,247.798z M194.072,289.082h276.605v33.027H41.32v-33.027H194.072z M305.54,338.623
	l-41.805,31.376l-52.241-31.376H305.54z M156.917,338.623l-41.805,31.376l-52.241-31.376H156.917z M182.199,340.275l52.249,31.376
	h-94.046L182.199,340.275z M330.823,340.275l52.249,31.376h-94.046L330.823,340.275z M360.118,338.623h94.046l-41.805,31.376
	L360.118,338.623z M495.448,260.183c0,6.837-5.549,12.385-12.385,12.385H359.21c-6.837,0-12.385-5.549-12.385-12.385
	s5.549-12.385,12.385-12.385h123.853C489.908,247.798,495.448,253.346,495.448,260.183z M255.999,24.862
	c13.682,0,24.771,11.089,24.771,24.771s-11.089,24.771-24.771,24.771c-13.682,0-24.771-11.089-24.771-24.771
	S242.317,24.862,255.999,24.862z M247.742,95.797v36.405c0,4.558,3.699,8.257,8.257,8.257c4.558,0,8.257-3.699,8.257-8.257V95.797
	l178.497,85.946H69.245L247.742,95.797z M16.55,260.183c0-6.837,5.549-12.385,12.385-12.385h123.853
	c6.837,0,12.385,5.549,12.385,12.385c0,6.837-5.549,12.385-12.385,12.385H28.935C22.098,272.568,16.55,267.02,16.55,260.183z
	 M41.32,371.651v-26.703l44.505,26.703H41.32z M470.678,454.219v33.027H41.32v-33.027H470.678z M462.421,437.706H49.577
	c-13.682,0-24.771-11.089-24.771-24.771s11.089-24.771,24.771-24.771h412.843c13.682,0,24.771,11.089,24.771,24.771
	S476.102,437.706,462.421,437.706z M437.65,371.651l33.027-24.771v24.771H437.65z"/>
<path d="M93.925,413.521l-41.284-16.514c-4.236-1.693-9.041,0.372-10.734,4.607s0.372,9.041,4.607,10.734l41.284,16.514
	c4.236,1.693,9.041-0.372,10.734-4.607S98.161,415.214,93.925,413.521z"/>
<path d="M168.237,413.521l-41.284-16.514c-4.236-1.693-9.041,0.372-10.734,4.607c-1.693,4.236,0.372,9.041,4.607,10.734
	l41.284,16.514c4.236,1.693,9.041-0.372,10.734-4.607C174.537,420.019,172.473,415.214,168.237,413.521z"/>
<path d="M242.549,413.521l-41.284-16.514c-4.236-1.693-9.041,0.372-10.734,4.607s0.372,9.041,4.607,10.734l41.284,16.514
	c4.236,1.693,9.041-0.372,10.734-4.607S246.784,415.214,242.549,413.521z"/>
<path d="M316.86,413.521l-41.284-16.514c-4.236-1.693-9.041,0.372-10.734,4.607c-1.693,4.236,0.372,9.041,4.607,10.734
	l41.284,16.514c4.236,1.693,9.041-0.372,10.734-4.607S321.096,415.214,316.86,413.521z"/>
<path d="M391.172,413.521l-41.284-16.514c-4.236-1.693-9.041,0.372-10.734,4.607c-1.693,4.236,0.372,9.041,4.607,10.734
	l41.284,16.514c4.236,1.693,9.041-0.372,10.734-4.607S395.408,415.214,391.172,413.521z"/>
<path d="M465.484,413.521L424.2,397.008c-4.236-1.693-9.041,0.372-10.734,4.607c-1.693,4.236,0.372,9.041,4.607,10.734
	l41.284,16.514c4.236,1.693,9.041-0.372,10.734-4.607S469.72,415.214,465.484,413.521z"/>
<rect x="148.627" y="156.964" width="16.514" height="16.514"/>
<rect x="198.168" y="132.193" width="16.514" height="16.514"/>
<rect x="247.709" y="156.964" width="16.514" height="16.514"/>
<rect x="297.25" y="132.193" width="16.514" height="16.514"/>
<rect x="346.792" y="156.964" width="16.514" height="16.514"/>
<g>
</g>
<g>
</g>
<g>
</g>
<g>
</g>
<g>
</g>
<g>
</g>
<g>
</g>
<g>
</g>
<g>
</g>
<g>
</g>
<g>
</g>
<g>
</g>
<g>
</g>
<g>
</g>
<g>
</g>
</svg>
