<?xml version="1.0" encoding="iso-8859-1"?>
<!-- Generator: Adobe Illustrator 19.0.0, SVG Export Plug-In . SVG Version: 6.00 Build 0)  -->
<svg version="1.1" id="Capa_1" xmlns="http://www.w3.org/2000/svg" xmlns:xlink="http://www.w3.org/1999/xlink" x="0px" y="0px"
	 viewBox="0 0 512 512" style="enable-background:new 0 0 512 512;" xml:space="preserve">
<path style="fill:#89B140;" d="M375.467,169.353c0-13.833-18.33-25.037-34.133-25.037c-1.399-19.712-18.432-34.611-38.153-33.382
	c-19.721-1.229-36.745,13.67-38.144,33.382c-14.797-0.922-27.563,10.249-28.612,25.037v9.301
	c-25.805-5.248-50.978,11.426-56.226,37.231s11.426,50.978,37.231,56.226c3.106,0.631,6.281,0.956,9.455,0.956
	c19.55,0,21.751-8.772,29.116-25.6h119.467V169.353z"/>
<path style="fill:#F4CA62;" d="M251.349,219.247l15.812-30.251c8.73-16.708,29.355-23.168,46.063-14.438l0,0
	c16.708,8.73,23.168,29.355,14.438,46.063l-15.812,30.251c-8.73,16.708-29.355,23.168-46.063,14.438l0,0
	C249.079,256.572,242.62,235.955,251.349,219.247z"/>
<path style="fill:#EA9D2D;" d="M281.6,243.593c-4.71,0-8.533-3.823-8.533-8.533c0-1.374,0.333-2.731,0.973-3.951l15.812-30.251
	c2.185-4.181,7.339-5.794,11.511-3.61c4.181,2.185,5.794,7.339,3.618,11.511l-15.804,30.251
	C287.701,241.835,284.783,243.601,281.6,243.593z"/>
<path style="fill:#EAEAE8;" d="M384.657,293.094L384.657,293.094c-30.805-14.08-44.365-50.466-30.285-81.271
	c0.913-1.988,1.929-3.925,3.038-5.811l24.747-41.643c13.261-22.716,41.574-31.693,65.502-20.762l8.849,4.045
	c23.945,10.94,35.695,38.246,27.17,63.147l-15.309,45.943c-10.726,32.137-45.466,49.485-77.602,38.758
	C388.685,294.81,386.645,294.007,384.657,293.094z"/>
<circle style="fill:#FBB540;" cx="411.221" cy="234.889" r="29.867"/>
<rect x="153.6" y="443.733" style="fill:#B9B9B9;" width="204.8" height="59.733"/>
<path style="fill:#D9D9D9;" d="M8.772,238.933c-0.119,2.833-0.239,5.675-0.239,8.533c0,122.53,110.797,221.867,247.467,221.867
	s247.467-99.337,247.467-221.867c0-2.859-0.119-5.7-0.239-8.533H8.772z"/>
<rect x="8.533" y="32.478" style="fill:#744630;" width="494.933" height="44.322"/>
<g>
	<path style="fill:#EAC25E;" d="M93.867,238.933H76.8c-0.401-12.698,2.79-25.25,9.207-36.215c5.717-9.677,8.448-20.83,7.859-32.051
		c-0.922-10.769-3.627-21.299-8.004-31.181c-5.146-11.742-8.209-24.294-9.062-37.086c0.717-22.639,5.965-44.902,15.454-65.468
		c0.853-2.057,1.545-3.558,1.809-4.454l5.495,1.655h11.375c-0.35,3.328-1.365,6.554-2.987,9.481
		c-8.602,18.449-13.389,38.443-14.08,58.786c0.922,10.769,3.627,21.316,8.004,31.198c5.146,11.742,8.209,24.277,9.062,37.069
		c0.58,13.995-2.825,27.861-9.83,39.996C95.991,219.179,93.474,229.009,93.867,238.933z"/>
	<path style="fill:#EAC25E;" d="M136.533,238.933h-17.067c-0.401-12.698,2.79-25.25,9.207-36.215
		c5.717-9.677,8.448-20.83,7.859-32.051c-0.922-10.769-3.627-21.299-8.004-31.181c-5.146-11.742-8.209-24.294-9.062-37.086
		c0.717-22.639,5.965-44.902,15.454-65.468c0.853-2.057,1.545-3.558,1.809-4.454l5.495,1.655H153.6
		c-0.35,3.328-1.365,6.554-2.987,9.481c-8.602,18.449-13.389,38.443-14.08,58.786c0.922,10.769,3.627,21.316,8.004,31.198
		c5.146,11.742,8.209,24.277,9.062,37.069c0.58,13.995-2.825,27.861-9.83,39.996C138.658,219.179,136.141,229.009,136.533,238.933z"
		/>
	<path style="fill:#EAC25E;" d="M51.2,238.933H34.133c-0.401-12.698,2.79-25.25,9.207-36.215c5.717-9.677,8.448-20.83,7.859-32.051
		c-0.922-10.769-3.627-21.299-8.004-31.181c-5.146-11.742-8.209-24.294-9.062-37.086c0.717-22.639,5.965-44.902,15.454-65.468
		c0.853-2.057,1.545-3.558,1.809-4.454l5.495,1.655h11.375c-0.35,3.328-1.365,6.554-2.987,9.481
		C56.678,62.063,51.891,82.057,51.2,102.4c0.922,10.769,3.627,21.316,8.004,31.198c5.146,11.742,8.209,24.277,9.062,37.069
		c0.58,13.995-2.825,27.861-9.83,39.996C53.325,219.179,50.807,229.009,51.2,238.933z"/>
</g>
<path style="fill:#B94137;" d="M484.471,332.8c2.56-5.572,4.915-11.273,7.006-17.067h-39.211V281.6H384v34.133h-51.2V281.6h-68.267
	v34.133H230.4V281.6h-68.267v34.133H128V281.6H59.733v34.133H20.523c2.091,5.794,4.412,11.494,7.006,17.067H76.8v-34.133h34.133
	V332.8H179.2v-34.133h34.133V332.8H281.6v-34.133h34.133V332.8h85.333v-34.133H435.2V332.8H484.471z"/>
<rect x="8.533" y="8.533" style="fill:#8F563B;" width="494.933" height="34.133"/>
<path d="M0,34.133v51.2h35.337c-0.777,5.658-1.178,11.358-1.203,17.067c0.845,12.8,3.917,25.353,9.062,37.103
	c4.378,9.873,7.083,20.403,8.004,31.164c0.58,11.221-2.15,22.357-7.859,32.034c-4.932,8.474-7.927,17.929-8.789,27.699H0.606
	l-0.358,8.158C0.119,241.493,0,244.48,0,247.467c0,91.307,59.307,170.359,145.067,207.625V512h221.867v-56.909
	C452.693,417.826,512,338.773,512,247.467c0-2.987-0.119-5.973-0.247-8.909l-0.358-8.158h-25.301l5.623-16.879
	c10.01-29.047-3.721-60.945-31.701-73.634l-8.841-4.045c-25.429-11.708-55.569-4.105-72.405,18.261
	c-7.296-9.472-17.946-15.795-29.756-17.655c-5.444-20.668-24.474-34.807-45.833-34.048c-21.402-0.768-40.465,13.414-45.875,34.133
	c-16.341,2.483-28.646,16.154-29.414,32.666c-31.241-0.358-56.866,24.678-57.225,55.919c0,0.085,0,0.171,0,0.265
	c0,1.707,0.213,3.345,0.358,5.018H137.02c0.862-6.972,3.157-13.687,6.75-19.721c7.006-12.134,10.411-26.01,9.83-40.013
	c-0.845-12.791-3.917-25.344-9.062-37.086c-4.378-9.882-7.083-20.412-8.004-31.181c0.017-5.717,0.469-11.418,1.357-17.067H512V0H0
	V34.133z M17.067,68.267V51.2h26.837c-1.869,5.171-3.678,10.906-5.248,17.067H17.067z M129.237,51.2
	c-1.869,5.171-3.678,10.906-5.248,17.067H98.987c1.792-6.281,3.831-12.058,5.811-17.067H129.237z M81.323,68.267H56.32
	c1.792-6.281,3.831-12.058,5.811-17.067h24.422C84.702,56.371,82.893,62.106,81.323,68.267z M59.204,133.598
	c-4.378-9.882-7.083-20.429-8.004-31.198c0.017-5.717,0.469-11.418,1.357-17.067h25.446c-0.777,5.658-1.178,11.358-1.203,17.067
	c0.845,12.8,3.917,25.353,9.062,37.103c4.378,9.873,7.083,20.403,8.004,31.164c0.58,11.221-2.15,22.357-7.859,32.034
	c-4.932,8.474-7.927,17.929-8.789,27.699H51.686c0.862-6.972,3.157-13.687,6.75-19.721c7.006-12.134,10.411-26.01,9.83-40.013
	C67.413,157.875,64.35,145.34,59.204,133.598z M349.867,494.933H162.133v-33.178c60.732,21.478,127.002,21.478,187.733,0V494.933z
	 M256,460.8c-97.775,0-181.982-52.736-218.923-128h31.189c4.71,0,8.533-3.823,8.533-8.533v-25.6h34.133v25.6
	c0,4.71,3.823,8.533,8.533,8.533h51.2c4.71,0,8.533-3.823,8.533-8.533v-25.6h34.133v25.6c0,4.71,3.823,8.533,8.533,8.533h51.2
	c4.71,0,8.533-3.823,8.533-8.533v-25.6h34.133v25.6c0,4.71,3.823,8.533,8.533,8.533h68.267c4.71,0,8.533-3.823,8.533-8.533v-25.6
	H435.2v25.6c0,4.71,3.823,8.533,8.533,8.533h31.189C437.982,408.064,353.775,460.8,256,460.8z M482.313,315.733h-30.046v-25.6
	c0-4.71-3.823-8.533-8.533-8.533h-51.2c-4.71,0-8.533,3.823-8.533,8.533v25.6h-51.2v-25.6c0-4.71-3.823-8.533-8.533-8.533h-51.2
	c-4.71,0-8.533,3.823-8.533,8.533v25.6H230.4v-25.6c0-4.71-3.823-8.533-8.533-8.533h-51.2c-4.71,0-8.533,3.823-8.533,8.533v25.6H128
	v-25.6c0-4.71-3.823-8.533-8.533-8.533h-51.2c-4.71,0-8.533,3.823-8.533,8.533v25.6H29.687
	c-8.329-21.794-12.604-44.937-12.621-68.267h477.867C494.916,270.797,490.641,293.939,482.313,315.733z M320.102,216.67
	l-7.177,13.73h-19.251l11.307-21.641c2.185-4.181,0.563-9.335-3.618-11.511c-4.181-2.185-9.335-0.563-11.511,3.61L274.406,230.4
	h-17.98c0.469-2.509,1.306-4.941,2.5-7.202l15.846-30.251c6.485-12.561,21.922-17.493,34.492-11.017
	c12.57,6.477,17.493,21.922,11.017,34.492c-0.043,0.085-0.085,0.171-0.128,0.247L320.102,216.67L320.102,216.67z M390.554,230.4
	c2.415-11.46,13.67-18.799,25.131-16.384c8.226,1.732,14.643,8.158,16.384,16.384H390.554z M389.495,168.67
	c11.008-19.004,34.671-26.505,54.613-17.297l8.841,4.036c20.002,9.088,29.798,31.898,22.622,52.659l-7.467,22.332h-18.842
	c-2.381-21.018-21.35-36.122-42.368-33.741c-13.397,1.519-25.011,9.975-30.575,22.263c-1.647,3.635-2.705,7.509-3.14,11.477h-15.36
	c0.922-7.074,3.268-13.892,6.903-20.036L389.495,168.67z M187.733,225.382c0.026-21.615,17.536-39.125,39.151-39.151
	c2.637,0,5.265,0.265,7.851,0.785c2.509,0.521,5.12-0.119,7.091-1.758c1.98-1.621,3.132-4.045,3.132-6.605v-9.301
	c1.092-10.044,10.01-17.382,20.079-16.503c4.71,0,8.533-3.823,8.533-8.533c1.442-14.976,14.618-26.027,29.611-24.849
	c15.002-1.186,28.177,9.873,29.619,24.849c0,4.71,3.823,8.533,8.533,8.533c12.203,0,25.6,8.636,25.6,16.503
	c0.017,0.998,0.222,1.98,0.589,2.901l-17.451,29.397c-5.197,8.781-8.405,18.594-9.395,28.749h-8.533l3.046-5.828
	c10.914-20.881,2.833-46.66-18.048-57.574c-20.881-10.914-46.66-2.833-57.583,18.048l-15.761,30.242
	c-2.423,4.71-3.951,9.839-4.497,15.113h-51.2C187.87,228.736,187.75,227.063,187.733,225.382z M128.529,139.503
	c4.378,9.873,7.083,20.403,8.004,31.164c0.58,11.221-2.15,22.357-7.859,32.034c-4.932,8.474-7.927,17.929-8.789,27.699H94.353
	c0.862-6.972,3.157-13.687,6.75-19.721c7.006-12.134,10.411-26.01,9.83-40.013c-0.845-12.791-3.917-25.344-9.062-37.086
	c-4.378-9.882-7.083-20.412-8.004-31.181c0.017-5.717,0.469-11.418,1.357-17.067h25.446c-0.777,5.658-1.186,11.358-1.203,17.067
	C120.311,115.2,123.383,127.753,128.529,139.503z M494.933,68.267h-353.28c1.792-6.281,3.831-12.058,5.811-17.067h347.469V68.267z
	 M17.067,17.067h477.867v17.067H17.067V17.067z"/>
<g>
</g>
<g>
</g>
<g>
</g>
<g>
</g>
<g>
</g>
<g>
</g>
<g>
</g>
<g>
</g>
<g>
</g>
<g>
</g>
<g>
</g>
<g>
</g>
<g>
</g>
<g>
</g>
<g>
</g>
</svg>
