<?xml version="1.0" encoding="iso-8859-1"?>
<!-- Generator: Adobe Illustrator 19.0.0, SVG Export Plug-In . SVG Version: 6.00 Build 0)  -->
<svg version="1.1" id="Capa_1" xmlns="http://www.w3.org/2000/svg" xmlns:xlink="http://www.w3.org/1999/xlink" x="0px" y="0px"
	 viewBox="0 0 512.006 512.006" style="enable-background:new 0 0 512.006 512.006;" xml:space="preserve">
<path style="fill:#EA9D2D;" d="M398.79,220.586l-12.614-2.808c-85.719-19.049-174.604-18.682-260.16,1.058l-5.206,1.203
	c-50.762,11.709-86.726,56.915-86.726,109.018v0.247c0,28.283,22.932,51.206,51.206,51.206c3.875,0,7.732-0.444,11.513-1.314
	l76.305-17.606c54.551-12.588,111.236-12.819,165.89-0.674l85.104,18.904c27.609,6.128,54.961-11.282,61.08-38.891
	c0.811-3.644,1.212-7.357,1.22-11.095l0,0C486.42,277.382,449.996,231.962,398.79,220.586z"/>
<path style="fill:#DC4D41;" d="M462.2,307.594l-154.164,37.21c-34.214,8.261-69.905,8.261-104.119,0l-154.164-37.21
	c-24.212-5.846-41.272-27.506-41.272-52.418l0,0c0-29.776,24.135-53.92,53.92-53.92c4.259,0,8.509,0.504,12.648,1.502
	l128.868,31.099c34.214,8.261,69.905,8.261,104.119,0l128.868-31.099c28.948-6.981,58.076,10.822,65.066,39.77
	c0.999,4.139,1.502,8.389,1.502,12.648l0,0C503.472,280.079,486.412,301.748,462.2,307.594z"/>
<path style="fill:#F3AF3E;" d="M398.79,436.582l-12.614,2.808c-85.719,19.049-174.604,18.682-260.16-1.058l-5.206-1.203
	C70.048,425.41,34.084,380.204,34.084,328.11v-0.247c0.017-28.283,22.966-51.189,51.24-51.172c3.866,0,7.715,0.444,11.479,1.314
	l76.305,17.606c54.551,12.588,111.236,12.819,165.89,0.674l85.087-18.904c27.609-6.136,54.961,11.265,61.097,38.874
	c0.811,3.636,1.22,7.348,1.22,11.078l0,0C486.42,379.786,449.996,425.205,398.79,436.582z"/>
<path style="fill:#F9D7C0;" d="M307.182,280.565c-1.323,0.017-2.629-0.282-3.815-0.853l-47.664-23.896l-56.105,24.041
	c-3.909,1.69-8.466,0.23-10.676-3.414l-21.541-35.895l-44.14,22.095c-4.216,2.108-9.345,0.401-11.453-3.815
	c-0.102-0.213-0.205-0.427-0.29-0.649l-12.801-31.995l-33.676,26.909c-3.678,2.944-9.055,2.347-11.999-1.331
	c-2.944-3.678-2.347-9.055,1.331-11.999l0,0l42.672-34.137c3.678-2.944,9.046-2.355,11.999,1.323
	c0.529,0.657,0.956,1.391,1.263,2.168l13.655,34.069l42.911-21.464c3.977-1.971,8.799-0.563,11.095,3.243l21.771,36.288
	l52.913-22.667c2.304-0.99,4.933-0.913,7.177,0.205l44.14,22.07l21.541-35.895c2.424-4.037,7.672-5.342,11.709-2.919l35.349,21.208
	l21.216-35.358c2.424-4.037,7.672-5.342,11.709-2.919l42.672,25.603c3.994,2.501,5.206,7.766,2.705,11.76
	c-2.441,3.892-7.519,5.163-11.496,2.868L404.004,224l-21.216,35.358c-2.424,4.037-7.672,5.342-11.709,2.919l-35.349-21.208
	l-21.216,35.358C312.969,278.995,310.187,280.565,307.182,280.565z"/>
<g>
	<rect x="76.756" y="331.771" style="fill:#D18D28;" width="17.069" height="17.069"/>
	<rect x="110.893" y="323.237" style="fill:#D18D28;" width="17.069" height="17.069"/>
	<rect x="145.03" y="331.771" style="fill:#D18D28;" width="17.069" height="17.069"/>
	<rect x="247.442" y="408.58" style="fill:#D18D28;" width="17.069" height="17.069"/>
	<rect x="281.579" y="391.512" style="fill:#D18D28;" width="17.069" height="17.069"/>
	<rect x="213.305" y="391.512" style="fill:#D18D28;" width="17.069" height="17.069"/>
	<rect x="349.854" y="331.771" style="fill:#D18D28;" width="17.069" height="17.069"/>
	<rect x="383.991" y="323.237" style="fill:#D18D28;" width="17.069" height="17.069"/>
	<rect x="418.129" y="331.771" style="fill:#D18D28;" width="17.069" height="17.069"/>
</g>
<path style="fill:#F9E0A0;" d="M178.553,161.085c-4.711,0-8.534-3.823-8.534-8.534c0-2.33,0.956-4.557,2.637-6.17
	c1.707-1.622,3.499-3.132,5.317-4.651c6.392-5.334,9.729-8.406,9.729-14.781s-3.337-9.456-9.738-14.79
	c-9.499-6.17-15.413-16.565-15.865-27.882c0.444-11.325,6.367-21.728,15.874-27.899c1.519-1.255,3.038-2.518,4.446-3.866
	c3.414-3.252,8.816-3.124,12.068,0.29c3.252,3.414,3.124,8.816-0.29,12.068c-1.707,1.604-3.482,3.115-5.291,4.626
	c-6.401,5.308-9.738,8.389-9.738,14.781s3.337,9.448,9.729,14.781c9.507,6.17,15.43,16.565,15.874,27.89
	c-0.444,11.325-6.358,21.728-15.865,27.899c-1.519,1.272-3.038,2.56-4.455,3.883C182.863,160.24,180.746,161.085,178.553,161.085z"
	/>
<path id="SVGCleanerId_0" style="fill:#F9E0A0;" d="M255.362,161.085c-4.711,0-8.534-3.823-8.534-8.534
	c0-2.33,0.956-4.557,2.637-6.17c1.707-1.622,3.499-3.132,5.317-4.651c6.392-5.334,9.729-8.406,9.729-14.781
	s-3.337-9.456-9.738-14.79c-9.499-6.17-15.413-16.565-15.865-27.882c0.444-11.325,6.367-21.728,15.874-27.899
	c1.519-1.255,3.038-2.518,4.446-3.866c3.414-3.252,8.816-3.124,12.068,0.29c3.252,3.414,3.124,8.816-0.29,12.068l0,0
	c-1.707,1.604-3.482,3.115-5.291,4.626c-6.401,5.308-9.738,8.389-9.738,14.781s3.337,9.448,9.729,14.781
	c9.507,6.17,15.43,16.565,15.874,27.89c-0.444,11.325-6.358,21.728-15.865,27.899c-1.519,1.272-3.038,2.56-4.455,3.883
	C259.672,160.24,257.555,161.085,255.362,161.085z"/>
<path style="fill:#F9E0A0;" d="M332.171,161.085c-4.711,0-8.534-3.823-8.534-8.534c0-2.33,0.956-4.557,2.637-6.17
	c1.707-1.622,3.499-3.132,5.317-4.651c6.392-5.334,9.729-8.406,9.729-14.781s-3.337-9.456-9.738-14.79
	c-9.499-6.17-15.413-16.565-15.865-27.882c0.444-11.325,6.367-21.728,15.874-27.899c1.519-1.255,3.038-2.518,4.446-3.866
	c3.414-3.252,8.816-3.124,12.068,0.29c3.252,3.414,3.124,8.816-0.29,12.068l0,0c-1.707,1.604-3.482,3.115-5.291,4.626
	c-6.401,5.308-9.738,8.389-9.738,14.781s3.337,9.448,9.729,14.781c9.507,6.17,15.43,16.565,15.874,27.89
	c-0.444,11.325-6.367,21.728-15.865,27.907c-1.519,1.263-3.047,2.56-4.455,3.875C336.481,160.24,334.364,161.085,332.171,161.085z"
	/>
<g>
	<path id="SVGCleanerId_0_1_" style="fill:#F9E0A0;" d="M255.362,161.085c-4.711,0-8.534-3.823-8.534-8.534
		c0-2.33,0.956-4.557,2.637-6.17c1.707-1.622,3.499-3.132,5.317-4.651c6.392-5.334,9.729-8.406,9.729-14.781
		s-3.337-9.456-9.738-14.79c-9.499-6.17-15.413-16.565-15.865-27.882c0.444-11.325,6.367-21.728,15.874-27.899
		c1.519-1.255,3.038-2.518,4.446-3.866c3.414-3.252,8.816-3.124,12.068,0.29c3.252,3.414,3.124,8.816-0.29,12.068l0,0
		c-1.707,1.604-3.482,3.115-5.291,4.626c-6.401,5.308-9.738,8.389-9.738,14.781s3.337,9.448,9.729,14.781
		c9.507,6.17,15.43,16.565,15.874,27.89c-0.444,11.325-6.358,21.728-15.865,27.899c-1.519,1.272-3.038,2.56-4.455,3.883
		C259.672,160.24,257.555,161.085,255.362,161.085z"/>
</g>
<path d="M488.187,206.103c-15.02-11.897-34.684-16.19-53.297-11.641l-55.294,13.348c-80.76-16.915-164.158-16.787-244.867,0.358
	v0.222L77.02,194.463c-33.531-8.048-67.233,12.605-75.29,46.137c-6.23,25.936,4.711,52.973,27.233,67.276
	c-2.279,6.503-3.431,13.348-3.414,20.235c-0.196,56.147,38.601,104.904,93.348,117.339l5.197,1.195
	c44.071,10.13,89.15,15.234,134.373,15.208c43.576,0.017,87.016-4.719,129.56-14.133l12.614-2.808
	c55.26-11.999,94.586-61.038,94.296-117.586c-0.009-8.398-1.792-16.693-5.232-24.357c26.405-22.155,29.853-61.515,7.706-87.929
	C494.656,211.753,491.567,208.758,488.187,206.103z M382.976,225.843l-10.446,17.41l-19.262-11.538l26.704-6.443
	C380.996,225.476,381.986,225.63,382.976,225.843z M337.744,217.906l-31.714,7.681c-32.908,7.911-67.216,7.911-100.125,0
	l-30.032-7.246C229.546,210.55,284.046,210.405,337.744,217.906L337.744,217.906z M316.015,240.719l-12.093,20.141l-26.747-13.373
	c11.069-0.981,22.044-2.757,32.857-5.325L316.015,240.719z M232.336,247.282l-32.618,13.979l-13.723-22.957l15.959,3.858
	C211.956,244.542,222.112,246.249,232.336,247.282z M150.68,229.803l-26.772,13.382l-8.748-21.976L150.68,229.803z M396.938,428.252
	l-12.614,2.808c-84.481,18.648-172.044,18.289-256.363-1.05l-5.206-1.195c-47.075-10.702-80.393-52.674-80.137-100.953
	c0-23.538,19.049-42.62,42.586-42.672c3.26,0,6.503,0.367,9.678,1.101l76.305,17.615c55.806,12.784,113.754,13.023,169.662,0.683
	l85.087-18.904c23.009-5.112,45.804,9.388,50.916,32.396c0.674,3.047,1.016,6.153,1.016,9.277
	C478.108,375.877,444.355,417.951,396.938,428.252z M480.429,288.374c-2.373-2.774-4.984-5.334-7.817-7.638
	c-14.116-11.385-32.661-15.703-50.353-11.726l-85.079,18.912c-53.433,11.803-108.821,11.581-162.152-0.657L98.723,269.65
	c-23.333-5.471-47.664,3.644-61.669,23.085c-20.773-13.988-26.277-42.16-12.289-62.932c10.591-15.737,29.853-23.213,48.287-18.75
	l13.211,3.192l-31.91,25.518c-3.678,2.944-4.276,8.321-1.331,11.999c2.944,3.678,8.321,4.276,11.999,1.331l33.685-26.951
	l12.801,31.995c1.75,4.378,6.717,6.503,11.095,4.754c0.222-0.085,0.435-0.188,0.649-0.29l44.14-22.07l21.541,35.895
	c2.21,3.644,6.768,5.104,10.676,3.414l56.096-24.024l47.664,23.896c3.977,1.971,8.799,0.563,11.095-3.243l21.216-35.358
	l35.349,21.208c4.037,2.424,9.285,1.118,11.709-2.919l21.216-35.358l35.349,21.208c4.079,2.355,9.302,0.956,11.658-3.132
	c2.296-3.977,1.024-9.063-2.868-11.496l-25.85-15.515l16.616-4.011c24.331-5.914,48.842,9.012,54.756,33.344
	c3.883,15.976-1.186,32.806-13.254,43.977L480.429,288.374z"/>
<rect x="76.756" y="331.771" width="17.069" height="17.069"/>
<rect x="110.893" y="323.237" width="17.069" height="17.069"/>
<rect x="145.03" y="331.771" width="17.069" height="17.069"/>
<rect x="247.442" y="408.58" width="17.069" height="17.069"/>
<rect x="281.579" y="391.512" width="17.069" height="17.069"/>
<rect x="213.305" y="391.512" width="17.069" height="17.069"/>
<rect x="349.854" y="331.771" width="17.069" height="17.069"/>
<rect x="383.991" y="323.237" width="17.069" height="17.069"/>
<rect x="418.129" y="331.771" width="17.069" height="17.069"/>
<path d="M177.973,141.729c-1.818,1.519-3.627,3.03-5.317,4.651c-3.405,3.26-3.533,8.662-0.273,12.068s8.662,3.533,12.068,0.273
	c1.417-1.357,2.936-2.611,4.455-3.883c9.507-6.17,15.422-16.565,15.865-27.89c-0.444-11.325-6.367-21.728-15.874-27.899
	c-6.392-5.342-9.729-8.415-9.729-14.773c0-6.358,3.337-9.456,9.738-14.781c1.809-1.511,3.61-3.021,5.291-4.626
	c3.414-3.252,3.542-8.654,0.29-12.068c-3.252-3.414-8.654-3.542-12.068-0.29c-1.408,1.348-2.927,2.611-4.446,3.866
	c-9.507,6.17-15.43,16.574-15.874,27.899c0.444,11.325,6.367,21.72,15.865,27.89c6.401,5.317,9.738,8.389,9.738,14.781
	C187.702,133.34,184.365,136.395,177.973,141.729z"/>
<path d="M331.591,141.729c-1.818,1.519-3.627,3.03-5.317,4.651c-3.405,3.26-3.533,8.662-0.273,12.068
	c3.26,3.405,8.662,3.533,12.068,0.273c1.408-1.348,2.936-2.611,4.455-3.875c9.499-6.179,15.413-16.574,15.865-27.899
	c-0.444-11.325-6.367-21.728-15.874-27.899c-6.392-5.342-9.729-8.415-9.729-14.773c0-6.358,3.337-9.456,9.738-14.781
	c1.809-1.511,3.61-3.021,5.291-4.626c3.414-3.252,3.542-8.654,0.29-12.068c-3.252-3.414-8.654-3.542-12.068-0.29l0,0
	c-1.408,1.348-2.927,2.612-4.446,3.866c-9.507,6.17-15.43,16.574-15.874,27.899c0.444,11.325,6.367,21.72,15.865,27.89
	c6.401,5.317,9.738,8.389,9.738,14.781S337.983,136.395,331.591,141.729z"/>
<path d="M254.782,141.729c-1.818,1.519-3.627,3.03-5.317,4.651c-3.405,3.26-3.533,8.662-0.273,12.068
	c3.26,3.405,8.662,3.533,12.068,0.273c1.417-1.357,2.936-2.611,4.455-3.883c9.507-6.17,15.422-16.565,15.865-27.89
	c-0.444-11.325-6.367-21.728-15.874-27.899c-6.392-5.342-9.729-8.415-9.729-14.773c0-6.358,3.337-9.456,9.738-14.781
	c1.809-1.511,3.61-3.021,5.291-4.626c3.414-3.252,3.542-8.654,0.29-12.068c-3.252-3.414-8.654-3.542-12.068-0.29l0,0
	c-1.408,1.348-2.927,2.611-4.446,3.866c-9.507,6.17-15.43,16.574-15.874,27.899c0.444,11.325,6.367,21.72,15.865,27.89
	c6.401,5.317,9.738,8.389,9.738,14.781C264.511,133.34,261.174,136.395,254.782,141.729z"/>
<g>
</g>
<g>
</g>
<g>
</g>
<g>
</g>
<g>
</g>
<g>
</g>
<g>
</g>
<g>
</g>
<g>
</g>
<g>
</g>
<g>
</g>
<g>
</g>
<g>
</g>
<g>
</g>
<g>
</g>
</svg>
