<?xml version="1.0" encoding="iso-8859-1"?>
<!-- Generator: Adobe Illustrator 19.0.0, SVG Export Plug-In . SVG Version: 6.00 Build 0)  -->
<svg version="1.1" id="Capa_1" xmlns="http://www.w3.org/2000/svg" xmlns:xlink="http://www.w3.org/1999/xlink" x="0px" y="0px"
	 viewBox="0 0 512.001 512.001" style="enable-background:new 0 0 512.001 512.001;" xml:space="preserve">
<g>
	<path style="fill:#1F6C8C;" d="M469.334,247.467H435.2l0,0v-102.4l0,0h34.133c18.85,0,34.133,15.283,34.133,34.133v34.133
		C503.467,232.184,488.184,247.467,469.334,247.467z"/>
	<path style="fill:#1F6C8C;" d="M42.667,145.067H76.8l0,0v102.4l0,0H42.667c-18.85,0-34.133-15.283-34.133-34.133v-34.133
		C8.534,160.351,23.817,145.067,42.667,145.067z"/>
</g>
<circle style="fill:#3B869E;" cx="256" cy="196.267" r="187.733"/>
<circle style="fill:#F9E0A0;" cx="256" cy="196.267" r="136.533"/>
<path style="fill:#A8A8A8;" d="M256,443.734h119.467c9.429,0,17.067,7.637,17.067,17.067l0,0c0,9.429-7.637,17.067-17.067,17.067
	H256l0,0V443.734L256,443.734z"/>
<path style="fill:#CDCDCD;" d="M179.2,418.134h42.667c23.561,0,42.667,19.106,42.667,42.667l0,0
	c0,23.561-19.106,42.667-42.667,42.667H179.2c-23.561,0-42.667-19.106-42.667-42.667l0,0
	C136.534,437.24,155.64,418.134,179.2,418.134z"/>
<g>
	<path style="fill:#A8A8A8;" d="M238.934,460.801h-17.067c0-4.71-3.823-8.533-8.533-8.533h-25.6c-4.71,0-8.533,3.823-8.533,8.533
		h-17.067c0-14.14,11.46-25.6,25.6-25.6h25.6C227.473,435.201,238.934,446.661,238.934,460.801z"/>
	<rect x="187.734" y="469.334" style="fill:#A8A8A8;" width="17.067" height="17.067"/>
</g>
<g>
	<path style="fill:#EA9D2D;" d="M218.863,103.979l-30.993,14.302c-8.559,3.951-12.297,14.089-8.346,22.647
		c3.951,8.559,14.089,12.297,22.647,8.346l14.302,30.985l30.993-14.302l-14.302-30.993c8.636-3.772,12.578-13.833,8.806-22.468
		s-13.833-12.578-22.468-8.806C219.29,103.783,219.077,103.877,218.863,103.979z"/>
	<path style="fill:#EA9D2D;" d="M326.366,216.073l-32.751-9.566c-9.045-2.654-18.534,2.526-21.188,11.58
		c-2.654,9.045,2.526,18.534,11.58,21.188l-9.6,32.751l32.751,9.574l9.609-32.759c9.003,2.799,18.569-2.236,21.359-11.238
		c2.799-9.003-2.236-18.569-11.238-21.359c-0.171-0.051-0.35-0.102-0.529-0.154v-0.017H326.366z"/>
</g>
<circle style="fill:#C7463B;" cx="307.2" cy="145.067" r="25.6"/>
<path style="fill:#F4CA62;" d="M204.8,269.108c11.324,0.017,22.178-4.489,30.174-12.501l-60.348-60.339
	c-16.666,16.657-16.666,43.674-0.009,60.339C182.622,264.611,193.477,269.108,204.8,269.108z"/>
<path style="fill:#FBB540;" d="M174.635,184.201l-6.033,6.025c-20.156,19.831-20.429,52.25-0.597,72.405s52.25,20.429,72.405,0.597
	c0.196-0.196,0.393-0.393,0.589-0.589l6.033-6.033L174.635,184.201z M175.395,209.093l12.8,12.8h-17.22
	c0.58-4.531,2.091-8.9,4.42-12.826V209.093z M173.108,238.934h20.762l-4.429,17.809
	C182.008,252.997,176.197,246.665,173.108,238.934z M206.072,260.489l4.139-16.563l11.947,11.947
	C217.268,258.731,211.738,260.319,206.072,260.489z"/>
<g>
	<rect x="221.867" y="290.134" style="fill:#F26B32;" width="17.067" height="17.067"/>
	<rect x="230.4" y="204.801" style="fill:#F26B32;" width="17.067" height="17.067"/>
	<rect x="264.534" y="85.334" style="fill:#F26B32;" width="17.067" height="17.067"/>
	<rect x="341.334" y="179.201" style="fill:#F26B32;" width="17.067" height="17.067"/>
	<rect x="145.067" y="162.134" style="fill:#F26B32;" width="17.067" height="17.067"/>
</g>
<path d="M256,51.201c-80.119,0-145.067,64.947-145.067,145.067S175.881,341.334,256,341.334s145.067-64.947,145.067-145.067
	C400.982,116.191,336.086,51.295,256,51.201z M256,324.267c-70.69,0-128-57.31-128-128s57.31-128,128-128s128,57.31,128,128
	C383.924,266.932,326.665,324.191,256,324.267z"/>
<path d="M469.334,136.534H442.94C409.925,33.289,299.461-23.637,196.216,9.379C135.766,28.715,88.397,76.084,69.061,136.534H42.667
	C19.115,136.56,0.026,155.649,0,179.201v34.133c0.026,23.552,19.115,42.641,42.667,42.667h26.394
	c33.015,103.245,143.479,160.171,246.724,127.155c60.45-19.328,107.827-66.705,127.155-127.155h26.394
	c23.552-0.026,42.641-19.115,42.667-42.667v-34.133C511.975,155.649,492.886,136.568,469.334,136.534z M42.667,238.934
	c-14.14,0-25.6-11.46-25.6-25.6v-34.133c0-14.14,11.46-25.6,25.6-25.6h21.794c-6.306,28.092-6.306,57.242,0,85.333H42.667z
	 M256,375.467c-98.97,0-179.2-80.23-179.2-179.2s80.23-179.2,179.2-179.2s179.2,80.23,179.2,179.2
	C435.089,295.194,354.927,375.357,256,375.467z M494.934,213.334c0,14.14-11.46,25.6-25.6,25.6H447.54
	c6.306-28.092,6.306-57.242,0-85.333h21.794c14.14,0,25.6,11.46,25.6,25.6V213.334z"/>
<path d="M375.467,435.201H266.138c-9.131-15.821-26.001-25.574-44.271-25.6H179.2c-28.279,0-51.2,22.921-51.2,51.2
	c0,28.279,22.921,51.2,51.2,51.2h42.667c18.27-0.026,35.14-9.779,44.271-25.6h109.329c14.14,0,25.6-11.46,25.6-25.6
	C401.067,446.661,389.607,435.201,375.467,435.201z M221.867,494.934H179.2c-18.85,0-34.133-15.283-34.133-34.133
	s15.283-34.133,34.133-34.133h42.667c18.85,0,34.133,15.283,34.133,34.133S240.717,494.934,221.867,494.934z M375.467,469.334
	H272.299c1.024-5.641,1.024-11.426,0-17.067h103.168c4.71,0,8.533,3.823,8.533,8.533C384,465.511,380.177,469.334,375.467,469.334z"
	/>
<path d="M213.334,435.201h-25.6c-14.14,0-25.6,11.46-25.6,25.6H179.2c0-4.71,3.823-8.533,8.533-8.533h25.6
	c4.71,0,8.533,3.823,8.533,8.533h17.067C238.934,446.661,227.473,435.201,213.334,435.201z"/>
<rect x="187.734" y="469.334" width="17.067" height="17.067"/>
<path d="M249.259,108.75c-5.922-12.834-21.137-18.441-33.971-12.518l0,0l-30.967,14.302c-12.834,5.922-18.441,21.137-12.518,33.971
	c2.842,6.17,8.021,10.948,14.396,13.295c3.584,1.314,7.415,1.826,11.221,1.485l14.908,32.307l46.49-21.461L243.9,137.806
	C251.657,130.237,253.807,118.597,249.259,108.75z M220.647,168.961l-14.293-30.985l-7.757,3.567
	c-2.048,0.964-4.403,1.067-6.519,0.265c-4.42-1.63-6.69-6.537-5.06-10.957c0.785-2.125,2.372-3.849,4.429-4.796l30.985-14.302
	c4.275-1.98,9.353-0.111,11.332,4.164c1.98,4.275,0.111,9.353-4.173,11.332l-7.723,3.55l14.302,30.985L220.647,168.961z"/>
<path d="M328.764,207.881l-32.751-9.6c-13.568-3.977-27.793,3.797-31.761,17.365c-3.046,10.402,0.785,21.606,9.574,27.955
	l-10.018,34.133l49.126,14.413l10.018-34.133c14.123-0.751,24.951-12.8,24.209-26.923
	C346.582,220.229,339.2,210.919,328.764,207.881L328.764,207.881z M329.754,234.847c-1.323,4.523-6.059,7.125-10.581,5.803
	c-0.009,0-0.017-0.009-0.026-0.009l-8.183-2.406l-9.609,32.751l-16.341-4.796l9.6-32.759l-8.192-2.398
	c-4.523-1.331-7.108-6.076-5.786-10.59c1.331-4.523,6.076-7.108,10.598-5.786l32.751,9.6c4.523,1.323,7.108,6.067,5.786,10.59
	H329.754z"/>
<path d="M307.2,179.201c18.85,0,34.133-15.283,34.133-34.133s-15.283-34.133-34.133-34.133s-34.133,15.283-34.133,34.133
	S288.35,179.201,307.2,179.201z M307.2,128.001c9.429,0,17.067,7.637,17.067,17.067c0,9.429-7.637,17.067-17.067,17.067
	c-9.429,0-17.067-7.637-17.067-17.067C290.134,135.638,297.78,128.001,307.2,128.001z"/>
<path d="M168.602,190.226c-20.156,19.831-20.429,52.25-0.597,72.405s52.25,20.429,72.405,0.597c0.196-0.196,0.393-0.393,0.589-0.589
	l6.033-6.033l-72.397-72.405L168.602,190.226z M173.108,238.934h20.762l-4.429,17.809
	C182.008,252.997,176.197,246.665,173.108,238.934z M206.072,260.489l4.139-16.563l11.947,11.947
	C217.268,258.731,211.738,260.319,206.072,260.489z M188.16,221.867h-17.186c0.589-4.523,2.091-8.883,4.42-12.8L188.16,221.867z"/>
<rect x="221.867" y="290.134" width="17.067" height="17.067"/>
<rect x="230.4" y="204.801" width="17.067" height="17.067"/>
<rect x="264.534" y="85.334" width="17.067" height="17.067"/>
<rect x="341.334" y="179.201" width="17.067" height="17.067"/>
<rect x="145.067" y="162.134" width="17.067" height="17.067"/>
<g>
</g>
<g>
</g>
<g>
</g>
<g>
</g>
<g>
</g>
<g>
</g>
<g>
</g>
<g>
</g>
<g>
</g>
<g>
</g>
<g>
</g>
<g>
</g>
<g>
</g>
<g>
</g>
<g>
</g>
</svg>
